<svg width="391" height="605" viewBox="0 0 391 605" fill="none" xmlns="http://www.w3.org/2000/svg">
<g opacity="0.75">
<g opacity="0.65" filter="url(#filter0_f_603_20327)">
<path d="M307.498 458.541C264.904 458.541 557.038 386.381 212.68 386.381C-33.3401 386.381 425.534 319.43 212.678 301.94C26.0032 286.601 286.196 251.604 123.385 208.999" stroke="white" stroke-width="15" stroke-dasharray="20 20"/>
</g>
<ellipse rx="95.5188" ry="37.3357" transform="matrix(-0.950827 0.309723 0.309723 0.950827 103.241 194.413)" fill="url(#paint0_radial_603_20327)"/>
<g filter="url(#filter1_f_603_20327)">
<ellipse rx="30.1677" ry="7.21533" transform="matrix(-0.999999 0.00134666 0.00134666 0.999999 107.515 204.14)" fill="url(#paint1_radial_603_20327)"/>
</g>
<g filter="url(#filter2_d_603_20327)">
<path d="M95.4475 182.45L92.9575 162.414L74.7648 156.286L72.4859 172.29L95.4475 182.45Z" fill="url(#paint2_radial_603_20327)"/>
<path d="M120.732 167.103L113.534 152.347L93.0186 162.904L95.4699 182.676L120.732 167.103Z" fill="url(#paint3_radial_603_20327)"/>
<path d="M97.6504 119.904L87.9564 123.615L90.1579 144.638L105.799 137.223L97.6504 119.904Z" fill="url(#paint4_radial_603_20327)"/>
<path d="M79.1585 122.601L87.9558 123.614L90.1573 144.638L77.2523 140.171L79.1585 122.601Z" fill="url(#paint5_radial_603_20327)"/>
<g filter="url(#filter3_f_603_20327)">
<path d="M97.6504 119.904L87.9564 123.615L90.1579 144.638L105.799 137.223L97.6504 119.904Z" fill="url(#paint6_radial_603_20327)"/>
</g>
<g filter="url(#filter4_f_603_20327)">
<path d="M79.1585 122.601L87.9558 123.614L90.1573 144.638L77.2523 140.171L79.1585 122.601Z" fill="url(#paint7_radial_603_20327)"/>
</g>
<path d="M69.4446 171.642L94.95 182.441L97.5161 200.034L67.6934 186.321L69.4446 171.642Z" fill="url(#paint8_linear_603_20327)"/>
<path d="M92.897 163.422L90.2537 145.3L74.5316 140.298L72.0091 156.607L92.897 163.422Z" fill="url(#paint9_linear_603_20327)"/>
<g filter="url(#filter5_f_603_20327)">
<path d="M94.6499 183.347L92.1599 163.311L73.9672 157.183L71.6883 173.186L94.6499 183.347Z" fill="url(#paint10_radial_603_20327)"/>
</g>
<path d="M94.9503 182.441L97.5357 200.166L130.24 180.266L122.555 166.121L94.9503 182.441Z" fill="url(#paint11_linear_603_20327)"/>
<path d="M108.279 136.441L90.252 145.284L92.8979 163.425L115.939 151.399L108.279 136.441Z" fill="url(#paint12_linear_603_20327)"/>
<path d="M77.3234 122.869L88.2065 125.334L85.9156 105.674L79.8774 104.799L77.3234 122.869Z" fill="url(#paint13_linear_603_20327)"/>
<path d="M85.9147 105.675L91.9519 103.578L100.389 119.91L88.2056 125.334L85.9147 105.675Z" fill="url(#paint14_linear_603_20327)"/>
<path d="M86.7805 102.711L91.9525 103.578L85.9153 105.674L79.8771 104.799L86.7805 102.711Z" fill="url(#paint15_linear_603_20327)"/>
<path d="M69.4531 171.705L94.9494 182.441L122.554 166.121L119.621 164.793L120.238 166.054L94.7757 181.251L72.3148 171.558L72.3402 170.743L69.4531 171.705Z" fill="url(#paint16_linear_603_20327)"/>
<path d="M74.5318 140.298L90.2539 145.3L107.999 136.497L104.983 135.586L105.419 136.603L90.0802 144.109L77.2524 140.171L77.6433 138.898L74.5318 140.298Z" fill="url(#paint17_linear_603_20327)"/>
<g filter="url(#filter6_f_603_20327)">
<path d="M120.829 167.76L113.631 153.004L93.1156 163.562L95.5669 183.333L120.829 167.76Z" fill="url(#paint18_radial_603_20327)"/>
</g>
</g>
<g filter="url(#filter7_f_603_20327)">
<path d="M333.03 552.887L336.43 529.131L335.129 530.264L331.603 552.887L329.966 561.953L330.638 562.499L333.03 552.887Z" fill="url(#paint19_linear_603_20327)"/>
<path d="M275.364 553.894L271.876 530.138L273.211 531.271L276.829 553.894L278.508 562.961V564.052L275.364 553.894Z" fill="url(#paint20_linear_603_20327)"/>
<path d="M304.247 410.837C307.485 411.151 315.516 412.158 319.752 414.569L330.131 425.369L333.116 436.176L330.962 437.914L332.7 440.975L322.196 453.433H302.844V453.376L285.24 452.664L274.391 440.975L276.129 437.914L273.975 436.176L276.961 425.369L287.34 414.569C291.576 412.158 299.607 411.151 302.844 410.837V410.721C302.871 410.721 303.121 410.737 303.546 410.773C303.97 410.737 304.22 410.721 304.247 410.721V410.837Z" fill="#406BAA" stroke="black" stroke-width="0.5" stroke-miterlimit="10"/>
<path d="M281.119 449.04L285.291 445.174L276.103 437.887L274.319 440.975L281.119 449.04Z" fill="#1C2F53" stroke="black" stroke-width="0.5"/>
<path d="M325.947 449.04L321.774 445.174L330.963 437.887L332.747 440.975L325.947 449.04Z" fill="#1C2F53" stroke="black" stroke-width="0.5"/>
<path d="M289.841 414.839C288.965 415.166 288.154 415.865 287.449 416.266C286.743 416.668 282.58 419.75 282.58 419.75L279.558 423.821L279.768 427.557L293.818 440.694V438.396L289.841 414.839Z" fill="#324789" stroke="black" stroke-width="0.5" stroke-miterlimit="10"/>
<path d="M317.417 414.839C318.293 415.166 319.104 415.865 319.81 416.266C320.515 416.668 324.678 419.75 324.678 419.75L327.7 423.821L327.491 427.557L313.44 440.694V438.396L317.417 414.839Z" fill="#324789" stroke="black" stroke-width="0.5" stroke-miterlimit="10"/>
<path d="M313.704 412.218L320.461 403.633L324.599 405.041L327.678 408.597L331.307 429.438L324.599 419.805L313.704 412.218Z" fill="#406BAA" stroke="black" stroke-width="0.5" stroke-miterlimit="10"/>
<path fill-rule="evenodd" clip-rule="evenodd" d="M315.542 413.498L320.99 405.569L320.428 403.674L313.704 412.218L315.542 413.498Z" fill="#3A4D8A"/>
<path d="M320.99 405.569L321.229 405.498L321.263 405.612L321.196 405.71L320.99 405.569ZM315.542 413.498L315.748 413.639L315.605 413.847L315.399 413.703L315.542 413.498ZM320.428 403.674L320.232 403.519L320.531 403.14L320.668 403.603L320.428 403.674ZM313.704 412.218L313.561 412.424L313.344 412.272L313.508 412.064L313.704 412.218ZM321.196 405.71L315.748 413.639L315.336 413.356L320.784 405.427L321.196 405.71ZM320.668 403.603L321.229 405.498L320.75 405.64L320.189 403.745L320.668 403.603ZM313.508 412.064L320.232 403.519L320.625 403.829L313.901 412.373L313.508 412.064ZM315.399 413.703L313.561 412.424L313.847 412.013L315.685 413.293L315.399 413.703Z" fill="black"/>
<path fill-rule="evenodd" clip-rule="evenodd" d="M320.427 403.675L320.988 405.569L320.985 405.574L324.662 405.114L324.599 405.041L320.46 403.633L320.427 403.675Z" fill="#8FAED8"/>
<path d="M320.427 403.675L320.187 403.746L320.151 403.622L320.231 403.52L320.427 403.675ZM320.988 405.569L321.228 405.498L321.262 405.612L321.194 405.71L320.988 405.569ZM320.985 405.574L321.016 405.822L320.464 405.891L320.779 405.432L320.985 405.574ZM324.662 405.114L324.851 404.95L325.157 405.304L324.693 405.362L324.662 405.114ZM324.599 405.041L324.679 404.804L324.743 404.826L324.788 404.877L324.599 405.041ZM320.46 403.633L320.264 403.478L320.373 403.339L320.541 403.396L320.46 403.633ZM320.667 403.604L321.228 405.498L320.748 405.64L320.187 403.746L320.667 403.604ZM321.194 405.71L321.191 405.715L320.779 405.432L320.782 405.427L321.194 405.71ZM320.954 405.325L324.631 404.866L324.693 405.362L321.016 405.822L320.954 405.325ZM324.788 404.877L324.851 404.95L324.473 405.278L324.41 405.205L324.788 404.877ZM320.541 403.396L324.679 404.804L324.518 405.278L320.38 403.869L320.541 403.396ZM320.231 403.52L320.264 403.478L320.657 403.787L320.623 403.83L320.231 403.52Z" fill="black"/>
<path fill-rule="evenodd" clip-rule="evenodd" d="M327.772 409.144L331.306 429.438L327.28 423.656L327.772 409.144Z" fill="#34153B"/>
<path d="M327.772 409.144L327.523 409.136L328.019 409.101L327.772 409.144ZM331.306 429.438L331.552 429.395L331.101 429.58L331.306 429.438ZM327.28 423.656L327.075 423.799L327.028 423.731L327.031 423.648L327.28 423.656ZM328.019 409.101L331.552 429.395L331.06 429.48L327.526 409.187L328.019 409.101ZM331.101 429.58L327.075 423.799L327.486 423.514L331.511 429.295L331.101 429.58ZM327.031 423.648L327.523 409.136L328.022 409.152L327.53 423.665L327.031 423.648Z" fill="black"/>
<path fill-rule="evenodd" clip-rule="evenodd" d="M330.149 427.774L327.281 423.656L327.773 409.144L328.471 413.149L330.149 427.774Z" fill="#26477C"/>
<path d="M330.149 427.774L330.397 427.745L329.944 427.917L330.149 427.774ZM327.281 423.656L327.076 423.799L327.029 423.731L327.032 423.647L327.281 423.656ZM327.773 409.144L327.523 409.135L328.02 409.101L327.773 409.144ZM328.471 413.149L328.717 413.106L328.718 413.114L328.719 413.121L328.471 413.149ZM329.944 427.917L327.076 423.799L327.487 423.513L330.354 427.631L329.944 427.917ZM327.032 423.647L327.523 409.135L328.023 409.152L327.531 423.664L327.032 423.647ZM328.02 409.101L328.717 413.106L328.225 413.192L327.527 409.186L328.02 409.101ZM329.9 427.802L328.222 413.178L328.719 413.121L330.397 427.745L329.9 427.802Z" fill="black"/>
<path d="M293.318 412.254L286.562 403.668L282.423 405.076L279.345 408.632L275.716 429.473L282.423 419.84L293.318 412.254Z" fill="#456EAD" stroke="black" stroke-width="0.5" stroke-miterlimit="10"/>
<path fill-rule="evenodd" clip-rule="evenodd" d="M291.482 413.533L286.034 405.604L286.596 403.711L293.318 412.254L291.482 413.533Z" fill="#3A4D8A"/>
<path d="M286.034 405.604L285.795 405.533L285.761 405.648L285.828 405.746L286.034 405.604ZM291.482 413.533L291.276 413.674L291.418 413.882L291.624 413.738L291.482 413.533ZM286.596 403.711L286.792 403.556L286.493 403.176L286.356 403.64L286.596 403.711ZM293.318 412.254L293.461 412.459L293.679 412.307L293.515 412.099L293.318 412.254ZM285.828 405.746L291.276 413.674L291.688 413.391L286.241 405.463L285.828 405.746ZM286.356 403.64L285.795 405.533L286.274 405.675L286.835 403.782L286.356 403.64ZM293.515 412.099L286.792 403.556L286.399 403.865L293.122 412.408L293.515 412.099ZM291.624 413.738L293.461 412.459L293.176 412.048L291.339 413.328L291.624 413.738Z" fill="black"/>
<path fill-rule="evenodd" clip-rule="evenodd" d="M286.597 403.712L286.036 405.604L286.04 405.609L282.36 405.149L282.424 405.076L286.562 403.668L286.597 403.712Z" fill="#8FAED8"/>
<path d="M286.597 403.712L286.837 403.783L286.873 403.659L286.793 403.557L286.597 403.712ZM286.036 405.604L285.796 405.533L285.763 405.648L285.83 405.746L286.036 405.604ZM286.04 405.609L286.009 405.857L286.561 405.926L286.246 405.468L286.04 405.609ZM282.36 405.149L282.171 404.986L281.865 405.339L282.329 405.397L282.36 405.149ZM282.424 405.076L282.343 404.839L282.279 404.861L282.235 404.912L282.424 405.076ZM286.562 403.668L286.759 403.513L286.649 403.374L286.482 403.431L286.562 403.668ZM286.357 403.641L285.796 405.533L286.276 405.675L286.837 403.783L286.357 403.641ZM285.83 405.746L285.834 405.751L286.246 405.468L286.242 405.463L285.83 405.746ZM286.071 405.361L282.391 404.901L282.329 405.397L286.009 405.857L286.071 405.361ZM282.235 404.912L282.171 404.986L282.549 405.313L282.613 405.24L282.235 404.912ZM286.482 403.431L282.343 404.839L282.504 405.313L286.643 403.904L286.482 403.431ZM286.793 403.557L286.759 403.513L286.366 403.822L286.4 403.866L286.793 403.557Z" fill="black"/>
<path fill-rule="evenodd" clip-rule="evenodd" d="M279.248 409.179L275.715 429.473L279.74 423.691L279.248 409.179Z" fill="#34153B"/>
<path d="M279.248 409.179L279.498 409.171L279.002 409.136L279.248 409.179ZM275.715 429.473L275.469 429.43L275.92 429.616L275.715 429.473ZM279.74 423.691L279.946 423.834L279.993 423.766L279.99 423.683L279.74 423.691ZM279.002 409.136L275.469 429.43L275.961 429.516L279.495 409.222L279.002 409.136ZM275.92 429.616L279.946 423.834L279.535 423.549L275.51 429.33L275.92 429.616ZM279.99 423.683L279.498 409.171L278.999 409.188L279.491 423.7L279.99 423.683Z" fill="black"/>
<path fill-rule="evenodd" clip-rule="evenodd" d="M276.874 427.809L279.741 423.691L279.249 409.179L278.552 413.186L276.874 427.809Z" fill="#26477C"/>
<path d="M276.874 427.809L276.626 427.781L277.079 427.952L276.874 427.809ZM279.741 423.691L279.946 423.834L279.994 423.766L279.991 423.683L279.741 423.691ZM279.249 409.179L279.499 409.17L279.003 409.136L279.249 409.179ZM278.552 413.186L278.305 413.143L278.304 413.15L278.303 413.158L278.552 413.186ZM277.079 427.952L279.946 423.834L279.536 423.548L276.669 427.666L277.079 427.952ZM279.991 423.683L279.499 409.17L278.999 409.187L279.491 423.7L279.991 423.683ZM279.003 409.136L278.305 413.143L278.798 413.229L279.496 409.222L279.003 409.136ZM277.122 427.838L278.8 413.215L278.303 413.158L276.626 427.781L277.122 427.838Z" fill="black"/>
<path opacity="0.5" fill-rule="evenodd" clip-rule="evenodd" d="M281.905 405.676L279.346 408.631L275.718 429.472L282.425 419.84L284.108 418.668L281.905 405.676Z" fill="#09101F"/>
<path opacity="0.5" fill-rule="evenodd" clip-rule="evenodd" d="M325.292 405.676L327.851 408.631L331.48 429.472L324.773 419.84L323.09 418.668L325.292 405.676Z" fill="#09101F"/>
<rect width="48.1006" height="46.7575" transform="matrix(-1 0 0 1 326.944 456.518)" fill="#273872" stroke="black" stroke-width="0.5"/>
<path fill-rule="evenodd" clip-rule="evenodd" d="M275.446 509.194L272.802 512.896L272.383 515.28L272.383 515.28L273.474 509.068L274.146 503.654L280.945 501.681L280.945 501.681L275.568 503.241L275.992 503.36L275.446 509.194Z" fill="#3E3636"/>
<path d="M272.802 512.896L272.556 512.853L272.566 512.797L272.599 512.751L272.802 512.896ZM275.446 509.194L275.695 509.217L275.689 509.284L275.65 509.339L275.446 509.194ZM272.383 515.28L272.629 515.323L272.595 515.522L272.393 515.53L272.383 515.28ZM272.383 515.28L272.392 515.53L272.083 515.541L272.136 515.237L272.383 515.28ZM273.474 509.068L273.722 509.099L273.72 509.111L273.474 509.068ZM274.146 503.654L273.897 503.623L273.918 503.459L274.076 503.414L274.146 503.654ZM280.945 501.681L280.875 501.441L281.104 501.374L281.182 501.6L280.945 501.681ZM280.945 501.681L281.182 501.6L281.267 501.848L281.015 501.921L280.945 501.681ZM275.568 503.241L275.501 503.482L274.656 503.245L275.498 503.001L275.568 503.241ZM275.992 503.36L276.059 503.119L276.26 503.175L276.241 503.383L275.992 503.36ZM272.599 512.751L275.243 509.049L275.65 509.339L273.005 513.042L272.599 512.751ZM272.137 515.237L272.556 512.853L273.048 512.939L272.629 515.323L272.137 515.237ZM272.393 515.53L272.392 515.53L272.373 515.03L272.374 515.03L272.393 515.53ZM272.136 515.237L273.228 509.025L273.72 509.111L272.629 515.323L272.136 515.237ZM273.226 509.037L273.897 503.623L274.394 503.684L273.722 509.099L273.226 509.037ZM274.076 503.414L280.875 501.441L281.015 501.921L274.215 503.894L274.076 503.414ZM281.182 501.6L281.182 501.6L280.709 501.762L280.709 501.762L281.182 501.6ZM275.498 503.001L280.875 501.441L281.015 501.921L275.638 503.481L275.498 503.001ZM275.925 503.601L275.501 503.482L275.635 503L276.059 503.119L275.925 503.601ZM275.198 509.171L275.743 503.337L276.241 503.383L275.695 509.217L275.198 509.171Z" fill="black"/>
<path fill-rule="evenodd" clip-rule="evenodd" d="M279.605 502.07L281.323 508.606L283.695 508.859L284.809 511.293L283.55 514.021L275.114 514.566L272.829 512.863L275.45 509.194L275.995 503.36L275.571 503.241L279.605 502.07Z" fill="#D9D9D9"/>
<path d="M281.323 508.606L281.297 508.855L281.125 508.837L281.081 508.67L281.323 508.606ZM279.605 502.07L279.536 501.83L279.782 501.759L279.847 502.007L279.605 502.07ZM283.695 508.859L283.722 508.61L283.864 508.625L283.923 508.755L283.695 508.859ZM284.809 511.293L285.037 511.188L285.084 511.293L285.036 511.397L284.809 511.293ZM283.55 514.021L283.777 514.126L283.715 514.261L283.566 514.27L283.55 514.021ZM275.114 514.566L275.13 514.816L275.038 514.822L274.964 514.767L275.114 514.566ZM272.829 512.863L272.679 513.064L272.483 512.917L272.625 512.718L272.829 512.863ZM275.45 509.194L275.699 509.217L275.692 509.284L275.653 509.339L275.45 509.194ZM275.995 503.36L276.063 503.119L276.264 503.175L276.244 503.383L275.995 503.36ZM275.571 503.241L275.503 503.482L274.659 503.245L275.501 503.001L275.571 503.241ZM281.081 508.67L279.363 502.134L279.847 502.007L281.565 508.543L281.081 508.67ZM283.669 509.107L281.297 508.855L281.35 508.358L283.722 508.61L283.669 509.107ZM283.923 508.755L285.037 511.188L284.582 511.397L283.468 508.963L283.923 508.755ZM285.036 511.397L283.777 514.126L283.323 513.916L284.582 511.188L285.036 511.397ZM283.566 514.27L275.13 514.816L275.097 514.317L283.534 513.771L283.566 514.27ZM274.964 514.767L272.679 513.064L272.978 512.663L275.263 514.366L274.964 514.767ZM272.625 512.718L275.246 509.049L275.653 509.339L273.032 513.009L272.625 512.718ZM275.201 509.171L275.746 503.336L276.244 503.383L275.699 509.217L275.201 509.171ZM275.928 503.6L275.503 503.482L275.638 503L276.063 503.119L275.928 503.6ZM275.501 503.001L279.536 501.83L279.675 502.31L275.64 503.481L275.501 503.001Z" fill="black"/>
<path fill-rule="evenodd" clip-rule="evenodd" d="M275.445 509.195L272.801 512.897L272.382 515.281L272.383 515.28L272.802 512.897L275.446 509.195L275.992 503.36L275.568 503.242L279.603 502.071L281.321 508.606L284.088 508.901L282.54 506.34L280.945 501.681L275.567 503.242L275.991 503.36L275.445 509.195Z" fill="#3E3636"/>
<path d="M272.801 512.897L272.555 512.854L272.564 512.798L272.597 512.752L272.801 512.897ZM275.445 509.195L275.694 509.218L275.688 509.285L275.649 509.34L275.445 509.195ZM272.382 515.281L272.391 515.53L272.082 515.542L272.136 515.237L272.382 515.281ZM272.383 515.28L272.629 515.324L272.594 515.523L272.392 515.53L272.383 515.28ZM272.802 512.897L272.555 512.854L272.565 512.798L272.598 512.752L272.802 512.897ZM275.446 509.195L275.695 509.218L275.689 509.285L275.65 509.34L275.446 509.195ZM275.992 503.36L276.059 503.12L276.26 503.176L276.241 503.384L275.992 503.36ZM275.568 503.242L275.5 503.482L274.656 503.246L275.498 503.002L275.568 503.242ZM279.603 502.071L279.534 501.831L279.78 501.759L279.845 502.007L279.603 502.071ZM281.321 508.606L281.295 508.855L281.123 508.837L281.079 508.67L281.321 508.606ZM284.088 508.901L284.302 508.771L284.562 509.203L284.061 509.149L284.088 508.901ZM282.54 506.34L282.326 506.47L282.312 506.447L282.303 506.421L282.54 506.34ZM280.945 501.681L280.875 501.441L281.104 501.375L281.181 501.6L280.945 501.681ZM275.567 503.242L275.499 503.482L274.655 503.246L275.497 503.001L275.567 503.242ZM275.991 503.36L276.059 503.12L276.259 503.176L276.24 503.384L275.991 503.36ZM272.597 512.752L275.242 509.049L275.649 509.34L273.004 513.042L272.597 512.752ZM272.136 515.237L272.555 512.854L273.047 512.94L272.628 515.324L272.136 515.237ZM272.392 515.53L272.391 515.53L272.373 515.031L272.374 515.031L272.392 515.53ZM272.137 515.237L272.555 512.854L273.048 512.94L272.629 515.324L272.137 515.237ZM272.598 512.752L275.243 509.049L275.65 509.34L273.005 513.042L272.598 512.752ZM275.197 509.171L275.743 503.337L276.241 503.384L275.695 509.218L275.197 509.171ZM275.924 503.601L275.5 503.482L275.635 503.001L276.059 503.12L275.924 503.601ZM275.498 503.002L279.534 501.831L279.673 502.311L275.637 503.482L275.498 503.002ZM279.845 502.007L281.563 508.543L281.079 508.67L279.361 502.134L279.845 502.007ZM281.348 508.358L284.114 508.652L284.061 509.149L281.295 508.855L281.348 508.358ZM282.753 506.211L284.302 508.771L283.874 509.03L282.326 506.47L282.753 506.211ZM281.181 501.6L282.776 506.259L282.303 506.421L280.708 501.762L281.181 501.6ZM275.497 503.001L280.875 501.441L281.014 501.921L275.637 503.482L275.497 503.001ZM275.924 503.601L275.499 503.482L275.634 503.001L276.059 503.12L275.924 503.601ZM275.197 509.171L275.742 503.337L276.24 503.384L275.694 509.218L275.197 509.171Z" fill="black"/>
<path fill-rule="evenodd" clip-rule="evenodd" d="M333.115 503.654L333.787 509.068L334.46 512.896L331.815 509.194L331.27 503.36L331.694 503.241L333.115 503.654ZM326.316 501.681L324.721 506.34L321.447 511.754L324.721 514.902L324.721 514.902L321.447 511.754L324.721 506.34L326.316 501.681L326.316 501.681Z" fill="#3E3636"/>
<path d="M333.787 509.068L333.539 509.099L333.541 509.111L333.787 509.068ZM333.115 503.654L333.364 503.623L333.343 503.459L333.185 503.414L333.115 503.654ZM334.46 512.896L334.256 513.041L334.706 512.853L334.46 512.896ZM331.815 509.194L331.566 509.217L331.573 509.284L331.612 509.339L331.815 509.194ZM331.27 503.36L331.202 503.119L331.001 503.175L331.021 503.383L331.27 503.36ZM331.694 503.241L331.763 503.001L331.695 502.981L331.626 503L331.694 503.241ZM326.316 501.681L326.553 501.762L326.637 501.514L326.386 501.441L326.316 501.681ZM324.721 506.34L324.935 506.469L324.949 506.446L324.958 506.421L324.721 506.34ZM321.447 511.754L321.233 511.625L321.13 511.796L321.274 511.935L321.447 511.754ZM324.721 514.902L324.711 515.152L325.369 515.179L324.894 514.722L324.721 514.902ZM324.721 514.902L324.548 515.082L324.616 515.148L324.711 515.152L324.721 514.902ZM321.447 511.754L321.233 511.625L321.13 511.796L321.274 511.935L321.447 511.754ZM324.721 506.34L324.935 506.469L324.949 506.446L324.957 506.421L324.721 506.34ZM326.316 501.681L326.386 501.441L326.157 501.374L326.079 501.6L326.316 501.681ZM334.035 509.037L333.364 503.623L332.867 503.684L333.539 509.099L334.035 509.037ZM334.706 512.853L334.033 509.025L333.541 509.111L334.213 512.939L334.706 512.853ZM334.663 512.751L332.019 509.049L331.612 509.339L334.256 513.041L334.663 512.751ZM332.064 509.171L331.519 503.337L331.021 503.383L331.566 509.217L332.064 509.171ZM331.337 503.601L331.761 503.482L331.626 503L331.202 503.119L331.337 503.601ZM333.185 503.414L331.763 503.001L331.624 503.481L333.046 503.894L333.185 503.414ZM326.08 501.6L324.485 506.259L324.958 506.421L326.553 501.762L326.08 501.6ZM324.507 506.211L321.233 511.625L321.661 511.884L324.935 506.469L324.507 506.211ZM321.274 511.935L324.548 515.082L324.894 514.722L321.621 511.574L321.274 511.935ZM324.711 515.152L324.711 515.152L324.731 514.652L324.731 514.652L324.711 515.152ZM321.274 511.935L324.548 515.082L324.894 514.722L321.62 511.574L321.274 511.935ZM324.507 506.211L321.233 511.625L321.661 511.884L324.935 506.469L324.507 506.211ZM326.079 501.6L324.484 506.259L324.957 506.421L326.552 501.762L326.079 501.6ZM326.386 501.441L326.386 501.441L326.246 501.921L326.246 501.921L326.386 501.441Z" fill="black"/>
<path fill-rule="evenodd" clip-rule="evenodd" d="M327.657 502.07L325.939 508.606L323.569 508.858L322.455 511.293L323.714 514.021L332.15 514.566L334.435 512.863L331.814 509.194L331.268 503.36L331.693 503.241L327.657 502.07Z" fill="#D9D9D9"/>
<path d="M325.939 508.606L325.965 508.855L326.137 508.836L326.181 508.67L325.939 508.606ZM327.657 502.07L327.727 501.83L327.48 501.758L327.415 502.006L327.657 502.07ZM323.569 508.858L323.542 508.61L323.401 508.625L323.341 508.754L323.569 508.858ZM322.455 511.293L322.227 511.188L322.18 511.293L322.228 511.397L322.455 511.293ZM323.714 514.021L323.487 514.126L323.549 514.261L323.698 514.27L323.714 514.021ZM332.15 514.566L332.134 514.816L332.226 514.822L332.3 514.767L332.15 514.566ZM334.435 512.863L334.584 513.064L334.781 512.917L334.638 512.718L334.435 512.863ZM331.814 509.194L331.565 509.217L331.571 509.284L331.611 509.339L331.814 509.194ZM331.268 503.36L331.201 503.119L331 503.175L331.02 503.383L331.268 503.36ZM331.693 503.241L331.761 503.482L332.605 503.245L331.763 503.001L331.693 503.241ZM326.181 508.67L327.899 502.133L327.415 502.006L325.697 508.543L326.181 508.67ZM323.595 509.107L325.965 508.855L325.912 508.358L323.542 508.61L323.595 509.107ZM323.341 508.754L322.227 511.188L322.682 511.397L323.796 508.962L323.341 508.754ZM322.228 511.397L323.487 514.126L323.941 513.916L322.682 511.188L322.228 511.397ZM323.698 514.27L332.134 514.816L332.166 514.317L323.73 513.771L323.698 514.27ZM332.3 514.767L334.584 513.064L334.286 512.663L332.001 514.366L332.3 514.767ZM334.638 512.718L332.018 509.049L331.611 509.339L334.232 513.009L334.638 512.718ZM332.063 509.171L331.517 503.336L331.02 503.383L331.565 509.217L332.063 509.171ZM331.336 503.6L331.761 503.482L331.626 503L331.201 503.119L331.336 503.6ZM331.763 503.001L327.727 501.83L327.587 502.31L331.624 503.481L331.763 503.001Z" fill="black"/>
<path fill-rule="evenodd" clip-rule="evenodd" d="M331.816 509.194L334.461 512.897L334.88 515.28L324.722 514.902L324.722 514.902L334.88 515.28L334.461 512.897L331.816 509.194L331.27 503.359L331.694 503.241L331.695 503.241L331.27 503.36L331.816 509.194ZM327.657 502.069L326.317 501.681L324.722 506.34L323.174 508.9L325.939 508.606L327.657 502.069Z" fill="#3E3636"/>
<path d="M334.461 512.897L334.707 512.853L334.697 512.798L334.664 512.751L334.461 512.897ZM331.816 509.194L331.567 509.217L331.573 509.284L331.613 509.339L331.816 509.194ZM334.88 515.28L334.87 515.53L335.179 515.541L335.126 515.237L334.88 515.28ZM324.722 514.902L324.542 515.076L324.612 515.148L324.713 515.152L324.722 514.902ZM324.722 514.902L324.731 514.652L324.112 514.629L324.542 515.075L324.722 514.902ZM334.88 515.28L334.87 515.529L335.179 515.541L335.126 515.236L334.88 515.28ZM334.461 512.897L334.707 512.853L334.697 512.797L334.664 512.751L334.461 512.897ZM331.816 509.194L331.567 509.217L331.573 509.284L331.612 509.339L331.816 509.194ZM331.27 503.359L331.203 503.119L331.002 503.175L331.021 503.383L331.27 503.359ZM331.694 503.241L331.764 503.001L331.696 502.981L331.627 503L331.694 503.241ZM331.695 503.241L331.762 503.482L332.607 503.245L331.764 503.001L331.695 503.241ZM331.27 503.36L331.203 503.119L331.002 503.175L331.022 503.383L331.27 503.36ZM327.657 502.069L327.899 502.133L327.961 501.897L327.727 501.829L327.657 502.069ZM326.317 501.681L326.387 501.441L326.158 501.374L326.081 501.6L326.317 501.681ZM324.722 506.34L324.936 506.469L324.95 506.446L324.959 506.421L324.722 506.34ZM323.174 508.9L322.96 508.77L322.7 509.202L323.201 509.148L323.174 508.9ZM325.939 508.606L325.965 508.854L326.137 508.836L326.181 508.669L325.939 508.606ZM334.664 512.751L332.02 509.048L331.613 509.339L334.258 513.042L334.664 512.751ZM335.126 515.237L334.707 512.853L334.215 512.94L334.633 515.323L335.126 515.237ZM324.713 515.152L334.87 515.53L334.889 515.03L324.732 514.652L324.713 515.152ZM324.542 515.075L324.542 515.076L324.902 514.729L324.902 514.728L324.542 515.075ZM324.713 515.152L334.87 515.529L334.889 515.03L324.731 514.652L324.713 515.152ZM335.126 515.236L334.707 512.853L334.215 512.94L334.633 515.323L335.126 515.236ZM334.664 512.751L332.019 509.048L331.612 509.339L334.257 513.042L334.664 512.751ZM332.065 509.17L331.519 503.336L331.021 503.383L331.567 509.217L332.065 509.17ZM331.338 503.6L331.762 503.481L331.627 503L331.203 503.119L331.338 503.6ZM331.764 503.001L331.764 503.001L331.625 503.481L331.625 503.481L331.764 503.001ZM331.338 503.6L331.762 503.482L331.627 503L331.203 503.119L331.338 503.6ZM332.065 509.17L331.519 503.336L331.022 503.383L331.567 509.217L332.065 509.17ZM327.727 501.829L326.387 501.441L326.248 501.921L327.587 502.309L327.727 501.829ZM326.081 501.6L324.486 506.259L324.959 506.421L326.554 501.762L326.081 501.6ZM324.508 506.21L322.96 508.77L323.388 509.029L324.936 506.469L324.508 506.21ZM325.913 508.357L323.148 508.651L323.201 509.148L325.965 508.854L325.913 508.357ZM327.415 502.006L325.697 508.542L326.181 508.669L327.899 502.133L327.415 502.006Z" fill="black"/>
<path fill-rule="evenodd" clip-rule="evenodd" d="M274.809 504.927L275.312 505.229L279.844 504.867L280.001 499.63L280.001 499.63L275.678 500.222V500.222L275.297 505.219L274.809 504.926L274.809 504.927Z" fill="#112C52"/>
<path d="M274.809 504.927L274.681 505.142L274.571 505.076L274.56 504.947L274.809 504.927ZM275.312 505.229L275.332 505.478L275.252 505.485L275.184 505.444L275.312 505.229ZM279.844 504.867L280.094 504.874L280.087 505.098L279.864 505.116L279.844 504.867ZM280.001 499.63L280.169 499.444L280.255 499.522L280.251 499.638L280.001 499.63ZM280.001 499.63L279.968 499.382L280.082 499.367L280.169 499.444L280.001 499.63ZM275.678 500.222H275.428V500.004L275.644 499.974L275.678 500.222ZM275.678 500.222H275.928V500.231L275.927 500.241L275.678 500.222ZM275.297 505.219L275.546 505.238L275.515 505.641L275.168 505.433L275.297 505.219ZM274.809 504.926L274.56 504.946L274.521 504.462L274.938 504.712L274.809 504.926ZM274.938 504.713L275.441 505.015L275.184 505.444L274.681 505.142L274.938 504.713ZM275.292 504.98L279.824 504.617L279.864 505.116L275.332 505.478L275.292 504.98ZM279.594 504.859L279.752 499.623L280.251 499.638L280.094 504.874L279.594 504.859ZM279.834 499.816L279.834 499.816L280.169 499.444L280.169 499.444L279.834 499.816ZM280.035 499.878L275.712 500.469L275.644 499.974L279.968 499.382L280.035 499.878ZM275.928 500.222V500.222H275.428V500.222H275.928ZM275.927 500.241L275.546 505.238L275.047 505.2L275.429 500.203L275.927 500.241ZM275.168 505.433L274.681 505.141L274.938 504.712L275.425 505.004L275.168 505.433ZM275.059 504.906L275.059 504.907L274.56 504.947L274.56 504.946L275.059 504.906Z" fill="black"/>
<path d="M279.968 499.66L282.37 496.74L281.419 496.056L273.351 497.79L272.717 498.611L275.663 500.253L279.968 499.66Z" fill="#0A162A" stroke="#5F5D5D" stroke-width="0.5"/>
<path fill-rule="evenodd" clip-rule="evenodd" d="M275.677 500.222L275.296 505.219L273.265 504L272.764 498.629L272.783 498.62L275.676 500.222L275.677 500.222Z" fill="#152B53"/>
<path d="M275.296 505.219L275.545 505.238L275.514 505.642L275.167 505.433L275.296 505.219ZM275.677 500.222L275.643 499.974L275.95 499.932L275.927 500.241L275.677 500.222ZM273.265 504L273.136 504.215L273.028 504.15L273.016 504.024L273.265 504ZM272.764 498.629L272.515 498.652L272.499 498.482L272.652 498.405L272.764 498.629ZM272.783 498.62L272.671 498.396L272.789 498.337L272.904 498.401L272.783 498.62ZM275.676 500.222L275.71 500.47L275.627 500.481L275.554 500.441L275.676 500.222ZM275.047 505.2L275.428 500.203L275.927 500.241L275.545 505.238L275.047 505.2ZM273.394 503.786L275.425 505.005L275.167 505.433L273.136 504.215L273.394 503.786ZM273.013 498.606L273.514 503.977L273.016 504.024L272.515 498.652L273.013 498.606ZM272.894 498.843L272.876 498.853L272.652 498.405L272.671 498.396L272.894 498.843ZM272.904 498.401L275.797 500.003L275.554 500.441L272.662 498.839L272.904 498.401ZM275.641 499.974L275.643 499.974L275.712 500.469L275.71 500.47L275.641 499.974Z" fill="black"/>
<path fill-rule="evenodd" clip-rule="evenodd" d="M280 499.63L282.413 496.717L282.412 496.717L282.413 496.717L282.413 496.718L280.001 499.63L275.678 500.222L275.678 500.222L280 499.63ZM274.81 504.928L275.312 505.229L275.312 505.229L273.263 504L272.763 498.629L272.782 498.619L272.783 498.62L272.764 498.629L273.265 504L274.81 504.928ZM275.677 500.222L275.677 500.222L275.678 500.222L275.677 500.222L275.677 500.222Z" fill="#1E3B71"/>
<path d="M282.413 496.717L282.558 496.514L282.777 496.67L282.605 496.876L282.413 496.717ZM280 499.63L280.193 499.79L280.131 499.865L280.034 499.878L280 499.63ZM282.412 496.717L282.267 496.92L281.836 496.612L282.348 496.475L282.412 496.717ZM282.413 496.717L282.348 496.475L282.673 496.388L282.663 496.725L282.413 496.717ZM282.413 496.718L282.663 496.726L282.66 496.811L282.605 496.877L282.413 496.718ZM280.001 499.63L280.193 499.79L280.131 499.865L280.035 499.878L280.001 499.63ZM275.678 500.222L275.712 500.469L275.629 500.481L275.557 500.44L275.678 500.222ZM275.678 500.222L275.557 500.44L274.9 500.076L275.644 499.974L275.678 500.222ZM274.81 504.928L274.681 505.142L274.681 505.142L274.81 504.928ZM275.312 505.229L275.441 505.015L276.11 505.416L275.332 505.478L275.312 505.229ZM275.312 505.229L275.332 505.478L275.252 505.485L275.183 505.443L275.312 505.229ZM273.263 504L273.135 504.214L273.026 504.149L273.014 504.023L273.263 504ZM272.763 498.629L272.514 498.652L272.498 498.482L272.651 498.405L272.763 498.629ZM272.782 498.619L272.67 498.395L272.788 498.337L272.903 498.4L272.782 498.619ZM272.783 498.62L272.904 498.401L273.319 498.631L272.894 498.843L272.783 498.62ZM272.764 498.629L272.515 498.652L272.499 498.482L272.652 498.405L272.764 498.629ZM273.265 504L273.136 504.215L273.027 504.15L273.016 504.024L273.265 504ZM275.677 500.222L275.71 500.47L275.628 500.481L275.556 500.441L275.677 500.222ZM275.677 500.222L275.556 500.441L274.895 500.077L275.643 499.974L275.677 500.222ZM275.678 500.222L275.799 500.003L276.455 500.368L275.711 500.47L275.678 500.222ZM275.677 500.222L275.644 499.974L275.726 499.963L275.799 500.003L275.677 500.222ZM282.605 496.876L280.193 499.79L279.808 499.471L282.22 496.558L282.605 496.876ZM282.558 496.513L282.558 496.514L282.267 496.92L282.267 496.92L282.558 496.513ZM282.477 496.958L282.477 496.958L282.348 496.475L282.348 496.475L282.477 496.958ZM282.163 496.71L282.163 496.709L282.663 496.725L282.663 496.726L282.163 496.71ZM282.605 496.877L280.193 499.79L279.808 499.471L282.22 496.558L282.605 496.877ZM280.035 499.878L275.712 500.469L275.644 499.974L279.967 499.383L280.035 499.878ZM275.799 500.003L275.799 500.003L275.557 500.44L275.557 500.44L275.799 500.003ZM280.034 499.878L275.712 500.469L275.644 499.974L279.966 499.383L280.034 499.878ZM274.939 504.713L275.441 505.015L275.184 505.443L274.681 505.142L274.939 504.713ZM275.332 505.478L275.332 505.478L275.292 504.98L275.292 504.98L275.332 505.478ZM275.183 505.443L273.135 504.214L273.392 503.786L275.44 505.015L275.183 505.443ZM273.014 504.023L272.514 498.652L273.011 498.605L273.512 503.977L273.014 504.023ZM272.651 498.405L272.67 498.395L272.893 498.843L272.874 498.852L272.651 498.405ZM272.903 498.4L272.904 498.401L272.662 498.838L272.66 498.838L272.903 498.4ZM272.894 498.843L272.876 498.853L272.652 498.405L272.671 498.396L272.894 498.843ZM273.013 498.606L273.514 503.977L273.016 504.024L272.515 498.652L273.013 498.606ZM273.393 503.786L274.939 504.713L274.681 505.142L273.136 504.215L273.393 503.786ZM275.556 500.441L275.556 500.441L275.797 500.003L275.797 500.003L275.556 500.441ZM275.711 500.47L275.71 500.47L275.643 499.974L275.644 499.974L275.711 500.47ZM275.799 500.003L275.799 500.003L275.556 500.44L275.556 500.44L275.799 500.003ZM275.643 499.974L275.644 499.974L275.711 500.47L275.71 500.47L275.643 499.974Z" fill="black"/>
<path d="M274.117 444.345L282.829 436.455L283.416 437.177C283.416 437.177 289.254 453.202 291.731 459.414C283.378 459.414 278.341 470.285 278.341 470.285L274.117 444.345Z" fill="#70C6E8" stroke="black" stroke-width="0.5"/>
<path d="M332.905 444.345L324.194 436.455L323.607 437.177C323.607 437.177 317.768 453.202 315.292 459.414C323.644 459.414 328.681 470.285 328.681 470.285L332.905 444.345Z" fill="#70C6E8" stroke="black" stroke-width="0.5"/>
<path fill-rule="evenodd" clip-rule="evenodd" d="M304.142 432.186C303.915 432.129 303.694 432.071 303.477 432.012V432.293C302.792 432.402 302.063 432.515 301.298 432.633C295.364 433.548 287.292 434.794 280.863 437.371C292.757 453.046 293.252 493.067 287.891 508.603L303.477 511.363V511.618L304.195 511.49L304.65 511.571V511.41L320.236 508.65C314.875 493.114 315.371 453.093 327.264 437.418C322.571 435.496 316.796 434.513 311.642 433.636C309.09 433.202 306.691 432.794 304.65 432.31V432.102C304.484 432.13 304.315 432.158 304.142 432.186Z" fill="#4F86BB"/>
<path d="M303.477 432.012H303.227V431.684L303.543 431.771L303.477 432.012ZM304.142 432.186L304.182 432.433L304.131 432.441L304.081 432.429L304.142 432.186ZM303.477 432.293H303.727V432.507L303.517 432.54L303.477 432.293ZM301.298 432.633L301.336 432.88L301.336 432.88L301.298 432.633ZM280.863 437.371L280.664 437.522L280.466 437.261L280.77 437.139L280.863 437.371ZM287.891 508.603L287.848 508.849L287.559 508.798L287.655 508.522L287.891 508.603ZM303.477 511.363L303.521 511.117L303.727 511.154V511.363H303.477ZM303.477 511.618L303.521 511.864L303.227 511.916V511.618H303.477ZM304.195 511.49L304.152 511.244L304.195 511.237L304.239 511.244L304.195 511.49ZM304.65 511.571H304.9V511.869L304.607 511.817L304.65 511.571ZM304.65 511.41H304.4V511.2L304.607 511.164L304.65 511.41ZM320.236 508.65L320.473 508.568L320.568 508.845L320.28 508.896L320.236 508.65ZM327.264 437.418L327.359 437.187L327.66 437.31L327.464 437.569L327.264 437.418ZM311.642 433.636L311.6 433.882L311.642 433.636ZM304.65 432.31L304.593 432.553L304.4 432.508V432.31H304.65ZM304.65 432.102L304.609 431.855L304.9 431.806V432.102H304.65ZM303.543 431.771C303.758 431.83 303.978 431.887 304.203 431.944L304.081 432.429C303.853 432.371 303.63 432.313 303.411 432.253L303.543 431.771ZM303.227 432.293V432.012H303.727V432.293H303.227ZM303.517 432.54C302.83 432.649 302.101 432.762 301.336 432.88L301.26 432.386C302.025 432.268 302.753 432.155 303.438 432.046L303.517 432.54ZM301.336 432.88C295.396 433.796 287.353 435.038 280.956 437.603L280.77 437.139C287.23 434.549 295.332 433.3 301.26 432.386L301.336 432.88ZM281.062 437.22C284.063 441.175 286.335 446.651 287.975 452.866C289.615 459.083 290.626 466.057 291.097 473.022C292.039 486.944 290.824 500.872 288.127 508.685L287.655 508.522C290.32 500.799 291.538 486.948 290.598 473.056C290.129 466.115 289.121 459.173 287.491 452.993C285.86 446.81 283.61 441.405 280.664 437.522L281.062 437.22ZM287.935 508.357L303.521 511.117L303.434 511.61L287.848 508.849L287.935 508.357ZM303.227 511.618V511.363H303.727V511.618H303.227ZM304.239 511.737L303.521 511.864L303.434 511.371L304.152 511.244L304.239 511.737ZM304.239 511.244L304.694 511.325L304.607 511.817L304.152 511.737L304.239 511.244ZM304.4 511.571V511.41H304.9V511.571H304.4ZM320.28 508.896L304.694 511.656L304.607 511.164L320.193 508.403L320.28 508.896ZM327.464 437.569C324.518 441.451 322.268 446.856 320.637 453.04C319.006 459.22 317.999 466.161 317.529 473.103C316.59 486.994 317.808 500.846 320.473 508.568L320 508.731C317.304 500.918 316.089 486.991 317.031 473.069C317.502 466.104 318.513 459.13 320.153 452.912C321.793 446.697 324.064 441.222 327.065 437.267L327.464 437.569ZM311.684 433.39C316.831 434.265 322.636 435.252 327.359 437.187L327.17 437.649C322.507 435.739 316.761 434.761 311.6 433.882L311.684 433.39ZM304.708 432.067C306.739 432.548 309.13 432.955 311.684 433.39L311.6 433.882C309.05 433.449 306.642 433.039 304.593 432.553L304.708 432.067ZM304.4 432.31V432.102H304.9V432.31H304.4ZM304.692 432.348C304.525 432.376 304.355 432.405 304.182 432.433L304.101 431.939C304.274 431.911 304.443 431.883 304.609 431.855L304.692 432.348Z" fill="black"/>
<path d="M309.702 432.113C309.702 432.113 306.257 431.506 304.028 431.503C301.757 431.499 298.244 432.113 298.244 432.113L296.977 509.74H311.08L309.702 432.113Z" fill="#D9D9D9"/>
<path d="M298.696 432.324L297.482 509.49H310.573L309.252 432.323C309.163 432.308 309.046 432.288 308.905 432.265C308.562 432.208 308.082 432.132 307.535 432.057C306.437 431.905 305.084 431.754 304.027 431.753C302.95 431.751 301.57 431.902 300.451 432.054C299.893 432.13 299.404 432.207 299.053 432.264C298.909 432.287 298.788 432.308 298.696 432.324Z" fill="#2D649A" stroke="black" stroke-width="0.5"/>
<path fill-rule="evenodd" clip-rule="evenodd" d="M304.028 431.503C306.177 431.506 309.499 432.113 309.499 432.113L309.623 439.348C307.862 438.433 305.912 437.924 303.86 437.924C301.901 437.924 300.035 438.387 298.338 439.226L298.45 432.113C298.45 432.113 301.838 431.499 304.028 431.503ZM297.861 469.531C299.683 470.526 301.716 471.082 303.86 471.082C306.114 471.082 308.245 470.468 310.137 469.375L310.827 509.74H297.228L297.861 469.531Z" fill="#1B3D5F"/>
<path fill-rule="evenodd" clip-rule="evenodd" d="M281.125 437.727L293.824 444.784L296.892 481.138L289.268 507.137C289.13 507.137 288.755 507.109 288.119 507.016C293.595 491.907 293.124 453.282 281.125 437.727Z" fill="white"/>
<path fill-rule="evenodd" clip-rule="evenodd" d="M326.863 437.725L314.162 444.784L311.094 481.138L318.718 507.137C318.856 507.137 319.232 507.108 319.869 507.015C314.392 491.906 314.864 453.279 326.863 437.725Z" fill="white"/>
<path fill-rule="evenodd" clip-rule="evenodd" d="M281.129 437.729L293.431 444.942L296.404 482.109L289.016 508.689C288.883 508.689 288.52 508.66 287.904 508.565C293.211 493.12 292.754 453.633 281.129 437.729Z" fill="#32163A"/>
<path fill-rule="evenodd" clip-rule="evenodd" d="M326.944 437.728L314.64 444.942L311.667 482.109L319.055 508.69C319.189 508.69 319.552 508.661 320.169 508.566C314.861 493.12 315.318 453.632 326.944 437.728Z" fill="#32163A"/>
<rect x="-0.25" y="0.25" width="3.10964" height="53.8125" rx="1.55482" transform="matrix(-1 0 0 1 305.335 432.594)" fill="#FF7400" stroke="black" stroke-width="0.5"/>
<path d="M273.851 498.575C273.851 498.575 269.276 481.87 267.723 467.767C272.382 466.634 281.028 465.333 281.028 465.333L282.204 486.151L281.616 496.644L279.685 499.12L275.782 499.708L273.851 498.575Z" fill="#2D649A" stroke="black" stroke-width="0.5"/>
<path d="M271.083 469.542L274.984 494.167L272.26 493.307C270.817 487.152 268.945 478.253 268.059 470.201C268.95 469.984 269.988 469.761 271.083 469.542Z" fill="#152B53"/>
<path d="M277.208 465.5L271.542 472.09L275.781 499.708L279.684 499.162L279.349 487.326L277.208 465.5Z" fill="#214B88"/>
<path d="M270.114 482.919C269.879 481.878 268.827 475.602 268.393 472.636L268.225 472.258L269.694 482.919L273.891 498.827C272.688 493.986 270.349 483.96 270.114 482.919Z" fill="url(#paint21_linear_603_20327)"/>
<path fill-rule="evenodd" clip-rule="evenodd" d="M331.969 505.216L331.948 505.229L327.42 504.867L327.262 499.63L327.262 499.63L331.586 500.222L332.174 499.896L332.174 499.897L331.588 500.221V500.222L331.969 505.216Z" fill="#112C52"/>
<path d="M331.969 505.216L332.098 505.431L332.23 505.351L332.218 505.197L331.969 505.216ZM331.948 505.229L331.928 505.478L332.008 505.485L332.076 505.444L331.948 505.229ZM327.42 504.867L327.17 504.874L327.176 505.098L327.4 505.116L327.42 504.867ZM327.262 499.63L327.095 499.444L327.009 499.522L327.012 499.638L327.262 499.63ZM327.262 499.63L327.296 499.382L327.181 499.367L327.095 499.444L327.262 499.63ZM331.586 500.222L331.552 500.469L331.634 500.481L331.707 500.44L331.586 500.222ZM332.174 499.896L332.417 499.841L332.344 499.516L332.053 499.678L332.174 499.896ZM332.174 499.897L332.295 500.115L332.459 500.025L332.418 499.842L332.174 499.897ZM331.588 500.221L331.467 500.003L331.338 500.074V500.221H331.588ZM331.588 500.222H331.338V500.231L331.339 500.241L331.588 500.222ZM331.84 505.002L331.819 505.015L332.076 505.444L332.098 505.431L331.84 505.002ZM331.968 504.98L327.439 504.618L327.4 505.116L331.928 505.478L331.968 504.98ZM327.012 499.638L327.17 504.874L327.669 504.859L327.512 499.623L327.012 499.638ZM327.095 499.444L327.095 499.444L327.429 499.816L327.429 499.816L327.095 499.444ZM331.62 499.974L327.296 499.382L327.228 499.878L331.552 500.469L331.62 499.974ZM332.053 499.678L331.465 500.003L331.707 500.44L332.295 500.115L332.053 499.678ZM332.418 499.842L332.417 499.841L331.93 499.951L331.93 499.952L332.418 499.842ZM331.709 500.44L332.295 500.115L332.053 499.678L331.467 500.003L331.709 500.44ZM331.838 500.222V500.221H331.338V500.222H331.838ZM332.218 505.197L331.837 500.203L331.339 500.241L331.72 505.236L332.218 505.197Z" fill="black"/>
<path d="M327.29 499.66L324.888 496.74L325.84 496.056L333.907 497.79L334.542 498.611L331.596 500.253L327.29 499.66Z" fill="#0A162A" stroke="#5F5D5D" stroke-width="0.5"/>
<path fill-rule="evenodd" clip-rule="evenodd" d="M331.583 500.221V500.222L331.964 505.219L333.995 504L334.496 498.629L334.476 498.619L331.583 500.221Z" fill="#152B53"/>
<path d="M331.583 500.222H331.333V500.231L331.333 500.241L331.583 500.222ZM331.583 500.221L331.461 500.002L331.333 500.074V500.221H331.583ZM331.964 505.219L331.715 505.238L331.745 505.641L332.093 505.433L331.964 505.219ZM333.995 504L334.124 504.214L334.232 504.149L334.244 504.023L333.995 504ZM334.496 498.629L334.745 498.652L334.761 498.482L334.608 498.405L334.496 498.629ZM334.476 498.619L334.588 498.395L334.47 498.336L334.355 498.4L334.476 498.619ZM331.833 500.222V500.221H331.333V500.222H331.833ZM332.213 505.2L331.832 500.203L331.333 500.241L331.715 505.238L332.213 505.2ZM333.867 503.786L331.835 505.004L332.093 505.433L334.124 504.214L333.867 503.786ZM334.247 498.605L333.746 503.977L334.244 504.023L334.745 498.652L334.247 498.605ZM334.364 498.842L334.384 498.852L334.608 498.405L334.588 498.395L334.364 498.842ZM334.355 498.4L331.461 500.002L331.704 500.44L334.597 498.837L334.355 498.4Z" fill="black"/>
<path fill-rule="evenodd" clip-rule="evenodd" d="M327.259 499.63L324.847 496.717L325.029 502.452L327.396 504.865L327.42 504.867L327.262 499.631L327.259 499.63ZM324.847 496.717L324.847 496.717L324.846 496.717L324.847 496.717Z" fill="#D9D9D9"/>
<path d="M324.847 496.717L325.039 496.558L324.573 495.995L324.597 496.725L324.847 496.717ZM327.259 499.63L327.066 499.79L327.129 499.865L327.225 499.878L327.259 499.63ZM325.029 502.452L324.779 502.46L324.782 502.558L324.85 502.627L325.029 502.452ZM327.396 504.865L327.217 505.04L327.283 505.107L327.376 505.114L327.396 504.865ZM327.42 504.867L327.4 505.116L327.678 505.138L327.67 504.859L327.42 504.867ZM327.262 499.631L327.512 499.623L327.506 499.412L327.296 499.383L327.262 499.631ZM324.847 496.717L324.597 496.725L324.611 497.192L324.992 496.92L324.847 496.717ZM324.847 496.717L324.992 496.92L325.423 496.612L324.911 496.475L324.847 496.717ZM324.846 496.717L324.911 496.475L324.586 496.388L324.597 496.725L324.846 496.717ZM324.654 496.877L327.066 499.79L327.452 499.471L325.039 496.558L324.654 496.877ZM325.278 502.444L325.096 496.709L324.597 496.725L324.779 502.46L325.278 502.444ZM327.574 504.69L325.207 502.277L324.85 502.627L327.217 505.04L327.574 504.69ZM327.44 504.618L327.416 504.616L327.376 505.114L327.4 505.116L327.44 504.618ZM327.012 499.638L327.17 504.874L327.67 504.859L327.512 499.623L327.012 499.638ZM327.225 499.878L327.228 499.878L327.296 499.383L327.293 499.383L327.225 499.878ZM324.992 496.92L324.992 496.92L324.701 496.513L324.701 496.514L324.992 496.92ZM324.597 496.725L324.597 496.725L325.096 496.709L325.096 496.709L324.597 496.725ZM324.911 496.475L324.911 496.475L324.782 496.958L324.782 496.958L324.911 496.475Z" fill="black"/>
<path d="M333.408 498.575C333.408 498.575 337.983 481.87 339.536 467.767C334.877 466.634 326.231 465.333 326.231 465.333L325.055 486.151L325.643 496.644L327.574 499.12L331.477 499.708L333.408 498.575Z" fill="#2D649A" stroke="black" stroke-width="0.5"/>
<path d="M337.228 482.206C337.463 481.165 338.599 474.888 339.033 471.922L339.201 471.545L337.606 482.206L333.493 498.491C334.696 493.65 336.993 483.247 337.228 482.206Z" fill="url(#paint22_linear_603_20327)"/>
<path fill-rule="evenodd" clip-rule="evenodd" d="M339.454 468.499L336.431 467.935L332.276 494.168L334.733 493.392C336.17 487.505 338.399 477.541 339.454 468.499Z" fill="#152B53"/>
<path d="M329.757 466.592L335.969 471.167L331.478 499.708L327.574 499.162L327.91 487.326L329.757 466.592Z" fill="#214B88"/>
<path d="M332.248 484.514L336.61 481.487L339.132 481.133L333.823 497.621L332.248 496.54L331.298 490.373L332.248 484.514Z" fill="#0A162A"/>
<path d="M333.546 485.137L339.131 481.133C339.131 481.133 339.655 485.292 339.131 488.333C338.715 490.749 338.436 491.593 337.323 493.472C336.245 495.295 333.786 497.627 333.786 497.627L332.763 490.346L333.546 485.137Z" fill="#5185BA"/>
<path d="M334.458 486.381L338.346 483.592C338.346 483.592 338.711 486.489 338.346 488.606C338.056 490.288 337.862 490.876 337.088 492.184C336.337 493.453 334.624 495.077 334.624 495.077L333.912 490.007L334.458 486.381Z" fill="#5185BA" stroke="black" stroke-width="0.5"/>
<path d="M275.31 485.79L271.228 482.956L268.869 482.625L273.836 498.056L275.31 497.044L276.2 491.272L275.31 485.79Z" fill="#17191C"/>
<path d="M274.095 486.373L268.868 482.625C268.868 482.625 268.377 486.518 268.868 489.364C269.258 491.625 269.519 492.415 270.56 494.173C271.569 495.879 273.87 498.061 273.87 498.061L274.827 491.247L274.095 486.373Z" fill="#5185BA"/>
<path d="M273.289 487.537L269.65 484.927C269.65 484.927 269.308 487.638 269.65 489.619C269.921 491.194 270.103 491.744 270.828 492.968C271.531 494.156 273.133 495.675 273.133 495.675L273.799 490.931L273.289 487.537Z" fill="#5185BA" stroke="black" stroke-width="0.5"/>
<path d="M283.586 499.246L281.74 504.955L280.984 505.5L282.831 499.624L279.641 479.897L282.117 469.698L283.67 467.263L280.48 479.561L283.586 499.246Z" fill="#4F86BB" stroke="white" stroke-width="0.5"/>
<path d="M283.67 467.263L285.642 465.165L281.613 479.184L284.593 498.617L282.83 504.283L281.697 504.997L283.586 499.205L280.48 479.561L283.67 467.263Z" fill="#4F86BB" stroke="white" stroke-width="0.5"/>
<path d="M285.644 465.165L287.491 463.402L283 478.596L285.77 497.819L283.965 503.57L282.832 504.283L284.595 498.659L281.614 479.142L285.644 465.165Z" fill="#4F86BB" stroke="white" stroke-width="0.5"/>
<path d="M287.102 469.152C287.102 469.152 283.852 478.52 284.006 479.183C284.161 479.847 285.601 489.131 286.021 491.733C287.658 489.299 290.05 486.319 290.05 486.319C290.316 478.103 290.181 473.216 289.085 464.115L287.102 469.152Z" fill="#112241"/>
<path d="M321.074 469.11C321.074 469.11 324.324 478.478 324.169 479.142C324.015 479.805 323.081 490.697 322.155 491.691C320.039 491.218 317.79 483.381 317.79 483.381L319.091 464.073L321.074 469.11Z" fill="#112241" stroke="black" stroke-width="0.5"/>
<path d="M324.761 499.246L326.608 504.955L327.364 505.5L325.517 499.624L328.707 479.897L326.23 469.698L324.677 467.263L327.867 479.561L324.761 499.246Z" fill="#4F86BB" stroke="white" stroke-width="0.5"/>
<path d="M324.678 467.263L322.58 465.039L326.357 478.47L323.755 498.617L325.476 504.241L326.651 504.997L324.762 499.205L327.868 479.561L324.678 467.263Z" fill="#4F86BB" stroke="white" stroke-width="0.5"/>
<path d="M322.705 465.165L320.858 463.402L325.349 478.596L322.537 498.071L324.384 503.57L325.517 504.283L323.755 498.659L326.735 479.142L322.705 465.165Z" fill="#4F86BB" stroke="white" stroke-width="0.5"/>
<path d="M281.694 457.902C280.779 467.569 273.459 473.256 269.914 474.891C267.716 471.967 263.99 464.162 266.668 456.329C269.345 448.496 274.224 444.281 276.329 443.153C278.498 444.041 282.608 448.235 281.694 457.902Z" fill="#4170B0" stroke="black" stroke-width="0.5"/>
<path d="M276.724 443.312C278.077 445.965 280.409 451.417 277.726 458.292C275.327 464.439 270.062 467.51 266.788 468.617C265.653 465.092 265.134 460.699 266.639 456.299C269.318 448.461 274.207 444.245 276.317 443.118C276.446 443.171 276.582 443.235 276.724 443.312Z" fill="#1F4A89" stroke="black" stroke-width="0.5"/>
<path fill-rule="evenodd" clip-rule="evenodd" d="M277.728 458.292C280.411 451.417 278.079 445.966 276.725 443.312C276.584 443.235 276.448 443.171 276.319 443.118C275.881 443.352 275.323 443.719 274.691 444.224C275.882 447.2 276.91 451.758 274.781 457.212C272.906 462.018 269.278 464.944 266.22 466.521C266.381 467.247 266.574 467.948 266.79 468.617C270.063 467.51 275.329 464.439 277.728 458.292Z" fill="#1F4A89"/>
<path d="M276.725 443.312L276.838 443.09L276.908 443.128L276.945 443.2L276.725 443.312ZM277.728 458.292L277.497 458.194L277.497 458.194L277.728 458.292ZM276.319 443.118L276.199 442.894L276.299 442.84L276.406 442.884L276.319 443.118ZM274.691 444.224L274.462 444.314L274.391 444.138L274.535 444.024L274.691 444.224ZM274.781 457.212L274.551 457.114L274.551 457.114L274.781 457.212ZM266.22 466.521L265.978 466.571L265.936 466.382L266.104 466.295L266.22 466.521ZM266.79 468.617L266.873 468.857L266.634 468.938L266.555 468.691L266.79 468.617ZM276.945 443.2C278.311 445.878 280.681 451.415 277.958 458.39L277.497 458.194C280.141 451.42 277.847 446.053 276.506 443.424L276.945 443.2ZM276.406 442.884C276.545 442.941 276.689 443.009 276.838 443.09L276.613 443.534C276.479 443.461 276.351 443.401 276.231 443.352L276.406 442.884ZM274.535 444.024C275.176 443.512 275.746 443.136 276.199 442.894L276.438 443.342C276.016 443.567 275.47 443.926 274.846 444.423L274.535 444.024ZM274.92 444.133C276.128 447.149 277.171 451.778 275.012 457.31L274.551 457.114C276.649 451.738 275.637 447.25 274.462 444.314L274.92 444.133ZM275.012 457.31C273.108 462.187 269.429 465.151 266.336 466.746L266.104 466.295C269.127 464.737 272.703 461.849 274.551 457.114L275.012 457.31ZM266.555 468.691C266.337 468.014 266.141 467.306 265.978 466.571L266.461 466.471C266.621 467.189 266.812 467.882 267.025 468.544L266.555 468.691ZM277.958 458.39C275.524 464.627 270.187 467.736 266.873 468.857L266.707 468.378C269.94 467.285 275.133 464.251 277.497 458.194L277.958 458.39Z" fill="black"/>
<path d="M325.375 457.902C326.29 467.569 333.61 473.256 337.155 474.892C339.353 471.968 343.079 464.162 340.401 456.329C337.724 448.496 332.845 444.281 330.74 443.153C328.571 444.041 324.461 448.235 325.375 457.902Z" fill="#4170B0" stroke="black" stroke-width="0.5"/>
<path d="M330.345 443.312C328.992 445.965 326.66 451.417 329.343 458.292C331.742 464.438 337.007 467.51 340.281 468.617C341.416 465.092 341.935 460.699 340.43 456.298C337.751 448.46 332.862 444.245 330.752 443.117C330.623 443.17 330.487 443.235 330.345 443.312Z" fill="#1F4A89" stroke="black" stroke-width="0.5"/>
<path fill-rule="evenodd" clip-rule="evenodd" d="M329.342 458.292C326.659 451.417 328.991 445.965 330.345 443.312C330.486 443.235 330.622 443.17 330.752 443.118C331.189 443.352 331.747 443.719 332.38 444.223C331.188 447.199 330.16 451.758 332.289 457.212C334.164 462.018 337.792 464.944 340.85 466.521C340.689 467.247 340.496 467.948 340.28 468.617C337.007 467.51 331.741 464.439 329.342 458.292Z" fill="#1F4A89"/>
<path d="M330.345 443.312L330.232 443.09L330.162 443.128L330.125 443.2L330.345 443.312ZM329.342 458.292L329.573 458.194L329.573 458.194L329.342 458.292ZM330.752 443.118L330.871 442.894L330.771 442.84L330.664 442.884L330.752 443.118ZM332.38 444.223L332.609 444.314L332.679 444.138L332.535 444.023L332.38 444.223ZM332.289 457.212L332.519 457.114L332.519 457.114L332.289 457.212ZM340.85 466.521L341.092 466.571L341.134 466.382L340.967 466.295L340.85 466.521ZM340.28 468.617L340.197 468.857L340.436 468.937L340.516 468.691L340.28 468.617ZM330.125 443.2C328.759 445.878 326.389 451.414 329.112 458.389L329.573 458.194C326.929 451.42 329.223 446.053 330.564 443.424L330.125 443.2ZM330.664 442.884C330.526 442.941 330.381 443.009 330.232 443.09L330.457 443.534C330.591 443.461 330.719 443.4 330.84 443.351L330.664 442.884ZM332.535 444.023C331.894 443.512 331.324 443.136 330.871 442.894L330.632 443.341C331.055 443.567 331.6 443.925 332.224 444.423L332.535 444.023ZM332.15 444.133C330.943 447.149 329.899 451.778 332.058 457.31L332.519 457.114C330.421 451.738 331.433 447.25 332.609 444.314L332.15 444.133ZM332.058 457.31C333.962 462.187 337.641 465.151 340.734 466.746L340.967 466.295C337.944 464.737 334.367 461.849 332.519 457.114L332.058 457.31ZM340.516 468.691C340.733 468.014 340.929 467.306 341.092 466.571L340.609 466.471C340.449 467.189 340.258 467.881 340.045 468.544L340.516 468.691ZM329.112 458.389C331.546 464.626 336.883 467.736 340.197 468.857L340.363 468.378C337.131 467.284 331.937 464.251 329.573 458.194L329.112 458.389Z" fill="black"/>
<path d="M284.888 483.718L286.415 480.61L286.735 483.045L285.56 488.081" stroke="#FF6F00" stroke-opacity="0.56" stroke-width="0.5" stroke-linecap="round" stroke-linejoin="round"/>
<path d="M286.399 480.694L284.762 483.926L285.476 488.291L286.693 483.087L286.399 480.694Z" fill="#34153B"/>
<path fill-rule="evenodd" clip-rule="evenodd" d="M270.038 449.468C273.987 451.014 276.914 456.647 276.914 463.36C276.914 466.033 276.45 468.535 275.642 470.676C273.57 472.796 271.408 474.203 269.915 474.891C267.718 471.967 263.992 464.162 266.669 456.329C267.597 453.615 268.789 451.335 270.038 449.468Z" fill="#0F1F3D" fill-opacity="0.5"/>
<path d="M272.225 446.575C272.564 447.385 272.927 448.321 273.306 449.394C270.652 452.109 268.659 458.459 267.995 461.294L265.711 461.741C265.736 459.97 266.011 458.135 266.639 456.299C268.11 451.995 270.248 448.783 272.225 446.575Z" fill="#FF6F00" stroke="black" stroke-width="0.5"/>
<path fill-rule="evenodd" clip-rule="evenodd" d="M336.916 449.297C332.72 450.551 329.546 456.37 329.546 463.36C329.546 465.604 329.873 467.728 330.457 469.619C332.8 472.334 335.426 474.094 337.154 474.891C339.352 471.968 343.078 464.162 340.4 456.329C339.444 453.531 338.207 451.196 336.916 449.297Z" fill="#0F1F3D" fill-opacity="0.5"/>
<path d="M334.784 446.529C334.446 447.338 334.083 448.274 333.704 449.347C336.357 452.062 338.35 458.412 339.015 461.247L341.299 461.694C341.274 459.923 340.998 458.088 340.371 456.252C338.9 451.948 336.762 448.736 334.784 446.529Z" fill="#FF6F00" stroke="black" stroke-width="0.5"/>
<path d="M318.755 581.836V574.656V573.789H327.802V581.836L331.31 593.04L329.84 596.706H318.755L316.871 594.013L317.711 590.845L318.755 588.891V581.836Z" fill="#214B88" stroke="black" stroke-width="0.5"/>
<path fill-rule="evenodd" clip-rule="evenodd" d="M326.149 577.021V583.191L327.702 581.89V576.224L326.149 577.021Z" fill="#173662" fill-opacity="0.5"/>
<path d="M320.523 577.022H326.106L327.826 576.161L327.953 574.461H318.761V576.098L320.523 577.022Z" fill="black" fill-opacity="0.6"/>
<path d="M289.038 581.5V574.32V573.454H279.939V581.5L276.41 592.704L277.889 596.371H289.038L290.933 593.678L290.088 590.509L289.038 588.556V581.5Z" fill="#214B88" stroke="black" stroke-width="0.5"/>
<path d="M289.347 574.719L289.925 566.229L278.257 565.227L279.098 574.719L281.989 575.72H287.508L289.347 574.719Z" fill="#112C52"/>
<path d="M318.373 575.054L317.795 566.565L329.463 565.563L328.622 575.054L325.731 576.056H320.212L318.373 575.054Z" fill="#112C52"/>
<path fill-rule="evenodd" clip-rule="evenodd" d="M289.82 568.089C288.676 568.691 286.984 569.67 286.098 570.193V572.671L287.406 575.342L289.406 574.152L289.82 568.089Z" fill="#0A162A"/>
<path d="M286.098 570.193L285.971 569.978L285.848 570.051V570.193H286.098ZM289.82 568.089L290.069 568.106L290.1 567.66L289.703 567.868L289.82 568.089ZM286.098 572.671H285.848V572.728L285.874 572.78L286.098 572.671ZM287.406 575.342L287.181 575.452L287.301 575.696L287.534 575.557L287.406 575.342ZM289.406 574.152L289.533 574.366L289.646 574.299L289.655 574.169L289.406 574.152ZM286.226 570.409C287.111 569.886 288.798 568.91 289.936 568.311L289.703 567.868C288.554 568.473 286.858 569.454 285.971 569.978L286.226 570.409ZM286.348 572.671V570.193H285.848V572.671H286.348ZM287.63 575.233L286.323 572.561L285.874 572.78L287.181 575.452L287.63 575.233ZM289.278 573.937L287.278 575.128L287.534 575.557L289.533 574.366L289.278 573.937ZM289.655 574.169L290.069 568.106L289.57 568.072L289.156 574.135L289.655 574.169Z" fill="black"/>
<path fill-rule="evenodd" clip-rule="evenodd" d="M317.935 568.089C319.079 568.691 320.771 569.67 321.656 570.193V572.671L320.187 575.594L318.371 574.467L317.935 568.089Z" fill="#0A162A"/>
<path d="M321.656 570.193L321.784 569.978L321.906 570.051V570.193H321.656ZM317.935 568.089L317.686 568.106L317.655 567.66L318.052 567.868L317.935 568.089ZM321.656 572.671H321.906V572.73L321.88 572.783L321.656 572.671ZM320.187 575.594L320.411 575.707L320.288 575.951L320.056 575.807L320.187 575.594ZM318.371 574.467L318.239 574.679L318.13 574.612L318.121 574.484L318.371 574.467ZM321.529 570.409C320.644 569.886 318.957 568.91 317.819 568.311L318.052 567.868C319.201 568.473 320.897 569.454 321.784 569.978L321.529 570.409ZM321.406 572.671V570.193H321.906V572.671H321.406ZM319.964 575.482L321.433 572.558L321.88 572.783L320.411 575.707L319.964 575.482ZM318.503 574.254L320.319 575.382L320.056 575.807L318.239 574.679L318.503 574.254ZM318.121 574.484L317.686 568.106L318.185 568.072L318.62 574.45L318.121 574.484Z" fill="black"/>
<path fill-rule="evenodd" clip-rule="evenodd" d="M279.071 574.531L280.406 575.007V570.562L278.515 568.275L279.071 574.531Z" fill="#4667A2"/>
<path d="M279.071 574.531L278.822 574.553L278.836 574.713L278.987 574.766L279.071 574.531ZM280.406 575.007L280.322 575.242L280.656 575.361V575.007H280.406ZM280.406 570.562H280.656V570.472L280.599 570.403L280.406 570.562ZM278.515 568.275L278.707 568.116L278.194 567.496L278.266 568.297L278.515 568.275ZM278.987 574.766L280.322 575.242L280.49 574.771L279.155 574.295L278.987 574.766ZM280.656 575.007V570.562H280.156V575.007H280.656ZM280.599 570.403L278.707 568.116L278.322 568.434L280.213 570.722L280.599 570.403ZM278.266 568.297L278.822 574.553L279.32 574.509L278.764 568.253L278.266 568.297Z" fill="black"/>
<path fill-rule="evenodd" clip-rule="evenodd" d="M328.652 574.796L327.31 575.175V570.898L329.202 568.611L328.652 574.796Z" fill="#4667A2"/>
<path d="M328.652 574.796L328.901 574.818L328.886 574.99L328.72 575.037L328.652 574.796ZM327.31 575.175L327.378 575.415L327.06 575.505V575.175H327.31ZM327.31 570.898H327.06V570.808L327.118 570.739L327.31 570.898ZM329.202 568.611L329.009 568.452L329.522 567.831L329.451 568.633L329.202 568.611ZM328.72 575.037L327.378 575.415L327.242 574.934L328.584 574.556L328.72 575.037ZM327.06 575.175V570.898H327.56V575.175H327.06ZM327.118 570.739L329.009 568.452L329.394 568.77L327.503 571.058L327.118 570.739ZM329.451 568.633L328.901 574.818L328.403 574.774L328.953 568.589L329.451 568.633Z" fill="black"/>
<path fill-rule="evenodd" clip-rule="evenodd" d="M288.959 578.448V581.493V588.535L289.14 588.787L286.907 588.219L286.484 580.84L288.959 578.448Z" fill="#0A162A"/>
<path d="M288.959 578.448H289.209V577.858L288.786 578.268L288.959 578.448ZM288.959 588.535H288.709V588.616L288.756 588.681L288.959 588.535ZM289.14 588.787L289.079 589.029L289.744 589.198L289.343 588.641L289.14 588.787ZM286.907 588.219L286.657 588.233L286.668 588.416L286.845 588.461L286.907 588.219ZM286.484 580.84L286.31 580.661L286.228 580.74L286.234 580.855L286.484 580.84ZM289.209 581.493V578.448H288.709V581.493H289.209ZM289.209 588.535V581.493H288.709V588.535H289.209ZM289.343 588.641L289.162 588.389L288.756 588.681L288.937 588.933L289.343 588.641ZM289.202 588.545L286.968 587.977L286.845 588.461L289.079 589.029L289.202 588.545ZM287.156 588.205L286.733 580.826L286.234 580.855L286.657 588.233L287.156 588.205ZM286.658 581.02L289.133 578.627L288.786 578.268L286.31 580.661L286.658 581.02Z" fill="black"/>
<path fill-rule="evenodd" clip-rule="evenodd" d="M318.753 578.783V581.829V588.871L318.578 589.122L320.742 588.555L321.152 581.176L318.753 578.783Z" fill="#0A162A"/>
<path d="M318.753 578.783H318.503V578.18L318.93 578.606L318.753 578.783ZM318.753 588.871H319.003V588.949L318.958 589.014L318.753 588.871ZM318.578 589.122L318.641 589.364L317.985 589.536L318.373 588.979L318.578 589.122ZM320.742 588.555L320.992 588.568L320.982 588.75L320.806 588.796L320.742 588.555ZM321.152 581.176L321.329 580.999L321.408 581.078L321.402 581.19L321.152 581.176ZM318.503 581.829V578.783H319.003V581.829H318.503ZM318.503 588.871V581.829H319.003V588.871H318.503ZM318.373 588.979L318.548 588.728L318.958 589.014L318.783 589.265L318.373 588.979ZM318.514 588.88L320.679 588.313L320.806 588.796L318.641 589.364L318.514 588.88ZM320.493 588.541L320.902 581.162L321.402 581.19L320.992 588.568L320.493 588.541ZM320.975 581.353L318.576 578.96L318.93 578.606L321.329 580.999L320.975 581.353Z" fill="black"/>
<path fill-rule="evenodd" clip-rule="evenodd" d="M277.987 587.639H278.827L280.461 584.74L279.793 581.902L277.987 587.639Z" fill="#8DB0D9"/>
<path d="M277.987 587.639L277.748 587.564L277.646 587.889H277.987V587.639ZM278.827 587.639V587.889H278.973L279.045 587.762L278.827 587.639ZM280.461 584.74L280.679 584.863L280.727 584.778L280.704 584.683L280.461 584.74ZM279.793 581.902L280.037 581.845L279.828 580.959L279.555 581.827L279.793 581.902ZM277.987 587.889H278.827V587.389H277.987V587.889ZM279.045 587.762L280.679 584.863L280.243 584.618L278.609 587.516L279.045 587.762ZM280.704 584.683L280.037 581.845L279.55 581.96L280.218 584.798L280.704 584.683ZM279.555 581.827L277.748 587.564L278.225 587.714L280.032 581.977L279.555 581.827Z" fill="black"/>
<path fill-rule="evenodd" clip-rule="evenodd" d="M329.732 587.976H328.891L327.258 585.077L327.925 582.239L329.732 587.976Z" fill="#8DB0D9"/>
<path d="M329.732 587.976L329.97 587.901L330.072 588.226H329.732V587.976ZM328.891 587.976V588.226H328.745L328.674 588.098L328.891 587.976ZM327.258 585.077L327.04 585.2L326.992 585.115L327.014 585.02L327.258 585.077ZM327.925 582.239L327.682 582.182L327.89 581.296L328.164 582.164L327.925 582.239ZM329.732 588.226H328.891V587.726H329.732V588.226ZM328.674 588.098L327.04 585.2L327.475 584.954L329.109 587.853L328.674 588.098ZM327.014 585.02L327.682 582.182L328.169 582.296L327.501 585.134L327.014 585.02ZM328.164 582.164L329.97 587.901L329.493 588.051L327.687 582.314L328.164 582.164Z" fill="black"/>
<path d="M282.187 589.236L279.095 596.371L287.825 596.371L285.061 589.236L282.187 589.236Z" fill="#0F2746" stroke="black" stroke-width="0.5"/>
<path d="M325.532 589.572L328.623 596.707L319.893 596.707L322.657 589.572L325.532 589.572Z" fill="#0F2746" stroke="black" stroke-width="0.5"/>
<rect x="282.37" y="585.458" width="2.68625" height="2.68625" fill="#0F2746" stroke="black" stroke-width="0.5"/>
<rect width="2.68625" height="2.68625" transform="matrix(-1 0 0 1 325.35 585.794)" fill="#0F2746" stroke="black" stroke-width="0.5"/>
<path fill-rule="evenodd" clip-rule="evenodd" d="M318.757 575.535V581.836V588.892L317.763 590.752L320.231 589.068L320.482 576.812L318.757 575.535Z" fill="#0E213D" fill-opacity="0.5"/>
<path fill-rule="evenodd" clip-rule="evenodd" d="M288.954 575.439L288.999 581.828L289.049 588.883L289.64 589.969L286.778 588.907L286.022 576.95L288.954 575.439Z" fill="#0E213D" fill-opacity="0.5"/>
<path fill-rule="evenodd" clip-rule="evenodd" d="M317.479 591.728L320.651 591.418L318.762 596.707H318.757L316.873 594.014L317.479 591.728Z" fill="#8CB0D8"/>
<path fill-rule="evenodd" clip-rule="evenodd" d="M290.327 591.392L287.154 591.083L289.043 596.371H289.049L290.933 593.678L290.327 591.392Z" fill="#8CB0D8"/>
<path fill-rule="evenodd" clip-rule="evenodd" d="M329.824 596.707L327.197 590.956L330 588.854L331.31 593.04L329.84 596.707H329.824Z" fill="#7BC5E7"/>
<path fill-rule="evenodd" clip-rule="evenodd" d="M281.698 577.022V582.982L280.019 581.555V576.14L281.698 577.022Z" fill="#173662" fill-opacity="0.5"/>
<path fill-rule="evenodd" clip-rule="evenodd" d="M277.982 596.249L280.609 590.498L277.806 588.396L276.495 592.582L277.966 596.249H277.982Z" fill="#7BC5E7"/>
<path d="M331.235 498.203C331.235 498.203 334.733 501.238 336.081 506.52C337.696 512.851 337.827 525.337 337.827 525.337L337.609 528.02L336.212 529.964L334.542 534.503L331.977 553.223L330.681 559.393V561.408C330.681 561.408 331.628 561.572 331.977 562.445C332.496 563.743 330.536 568.121 330.536 568.121C330.536 568.121 328.927 569.504 327.306 570.478C325.333 571.663 322.896 572.137 321.019 571.22C318.745 570.11 316.915 568.121 316.915 568.121L315.656 552.823L310.632 535.881L308.335 531.273L304.152 529.371L299.969 531.273L297.672 535.881L292.648 552.823L291.389 568.121C291.389 568.121 289.559 570.11 287.285 571.22C285.408 572.137 282.971 571.663 280.998 570.478C279.377 569.504 277.768 568.121 277.768 568.121C277.768 568.121 275.808 563.743 276.327 562.445C276.676 561.572 277.768 561.324 277.768 561.324L277.208 555.574L275.655 541.765L272.092 529.964L270.695 528.02L270.477 525.337C270.477 525.337 269.793 517.026 271.408 510.696C272.756 505.413 274.117 502.651 277.191 500.488C281.771 497.267 285.296 495.589 290.737 493.735C295.313 492.175 302.271 490.055 303.962 489.542V486.682C303.962 486.682 312.247 486.342 317.487 488.128C322.928 489.982 331.235 498.203 331.235 498.203Z" fill="#2D649A" stroke="black" stroke-width="0.5"/>
<g style="mix-blend-mode:overlay">
<path fill-rule="evenodd" clip-rule="evenodd" d="M288.973 570.207L285.348 554.356L288.79 534.458L292.022 529.089L300.122 522.877L307.887 522.625L315.442 527.704L319.43 534.458L322.242 553.181L319.392 570.249C317.932 569.226 316.915 568.12 316.915 568.12L315.656 552.822L310.632 535.881L308.334 531.272L304.153 529.372L299.971 531.273L297.673 535.881L292.649 552.823L291.39 568.121C291.39 568.121 290.4 569.196 288.973 570.207Z" fill="white" fill-opacity="0.3"/>
</g>
<path d="M287.324 577.022H281.741L280.021 576.161L279.894 574.461H289.086V576.098L287.324 577.022Z" fill="black" fill-opacity="0.6"/>
<path d="M320.32 503.471C323.776 500.339 330.134 497.232 330.134 497.232L328.257 495.637C328.257 495.637 322.33 499.267 319.342 502.356C316.354 505.445 314.272 509.777 312.421 512.929C313.438 511.496 317.543 505.987 320.32 503.471Z" fill="#FF7400" stroke="black" stroke-width="0.5"/>
<path d="M288.123 504.455C284.506 501.093 279.684 499.162 279.684 499.162L281.783 498.029C281.783 498.029 286.019 499.943 289.146 503.259C292.273 506.575 294.452 511.224 296.389 514.608C295.325 513.07 291.028 507.156 288.123 504.455Z" fill="#FF7400" stroke="black" stroke-width="0.5"/>
<path d="M336.431 529.718L332.64 532.257L325.539 550.6L323.839 567.41C323.839 567.41 326.677 566.69 327.935 566.009C329.068 565.396 330.462 563.557 330.462 563.557L331.185 558.805L330.462 559.897L334.92 534.461L335.843 533.79L336.431 529.718Z" fill="#4667A2" stroke="black" stroke-width="0.5"/>
<path d="M271.876 529.718L275.692 532.257L282.841 550.6L284.552 567.41C284.552 567.41 281.696 566.69 280.429 566.009C279.288 565.396 277.885 563.557 277.885 563.557L277.206 560.064L277.885 560.82L273.219 534.923L272.589 534.419L271.876 529.718Z" fill="#4667A2" stroke="black" stroke-width="0.5"/>
<path fill-rule="evenodd" clip-rule="evenodd" d="M317.358 568.175L318.574 554.762L313.728 533.545L308.421 531.45L310.63 535.881L315.654 552.823L316.913 568.121L317.358 568.175Z" fill="#1D3B71"/>
<path d="M317.358 568.175L317.328 568.423L317.584 568.455L317.607 568.198L317.358 568.175ZM318.574 554.762L318.823 554.784L318.827 554.745L318.818 554.706L318.574 554.762ZM313.728 533.545L313.972 533.489L313.942 533.36L313.82 533.312L313.728 533.545ZM308.421 531.45L308.513 531.218L307.906 530.978L308.197 531.562L308.421 531.45ZM310.63 535.881L310.87 535.81L310.864 535.789L310.854 535.769L310.63 535.881ZM315.654 552.823L315.903 552.802L315.901 552.776L315.894 552.751L315.654 552.823ZM316.913 568.121L316.664 568.141L316.681 568.344L316.883 568.369L316.913 568.121ZM317.607 568.198L318.823 554.784L318.325 554.739L317.109 568.153L317.607 568.198ZM318.818 554.706L313.972 533.489L313.484 533.6L318.33 554.818L318.818 554.706ZM313.82 533.312L308.513 531.218L308.329 531.683L313.636 533.777L313.82 533.312ZM308.197 531.562L310.407 535.992L310.854 535.769L308.645 531.339L308.197 531.562ZM310.391 535.952L315.414 552.894L315.894 552.751L310.87 535.81L310.391 535.952ZM315.405 552.843L316.664 568.141L317.162 568.1L315.903 552.802L315.405 552.843ZM316.883 568.369L317.328 568.423L317.388 567.927L316.944 567.873L316.883 568.369Z" fill="black"/>
<path fill-rule="evenodd" clip-rule="evenodd" d="M290.945 568.175L289.728 554.761L294.574 533.544L299.879 531.45L297.67 535.881L292.647 552.823L291.387 568.121L290.945 568.175Z" fill="#1D3B71"/>
<path d="M290.945 568.175L290.975 568.423L290.719 568.454L290.696 568.198L290.945 568.175ZM289.728 554.761L289.479 554.784L289.476 554.744L289.485 554.706L289.728 554.761ZM294.574 533.544L294.331 533.488L294.36 533.36L294.483 533.311L294.574 533.544ZM299.879 531.45L299.788 531.218L300.394 530.979L300.103 531.562L299.879 531.45ZM297.67 535.881L297.431 535.81L297.437 535.789L297.447 535.769L297.67 535.881ZM292.647 552.823L292.397 552.802L292.4 552.776L292.407 552.751L292.647 552.823ZM291.387 568.121L291.636 568.141L291.62 568.344L291.418 568.369L291.387 568.121ZM290.696 568.198L289.479 554.784L289.977 554.739L291.194 568.152L290.696 568.198ZM289.485 554.706L294.331 533.488L294.818 533.6L289.972 554.817L289.485 554.706ZM294.483 533.311L299.788 531.218L299.971 531.683L294.666 533.777L294.483 533.311ZM300.103 531.562L297.894 535.992L297.447 535.769L299.656 531.339L300.103 531.562ZM297.91 535.952L292.886 552.894L292.407 552.751L297.431 535.81L297.91 535.952ZM292.896 552.843L291.636 568.141L291.138 568.1L292.397 552.802L292.896 552.843ZM291.418 568.369L290.975 568.423L290.914 567.927L291.357 567.873L291.418 568.369Z" fill="black"/>
<path d="M291.116 568.165L290.68 555.125L296.076 532.997L299.914 531.481L297.708 535.908L292.598 555.43L291.434 568.126L291.116 568.165Z" fill="#142746" stroke="black" stroke-width="0.5"/>
<path d="M317.291 568.333V554.641L312.275 533.165L308.392 531.649L310.623 536.076L315.836 554.99L316.969 568.294L317.291 568.333Z" fill="#142746" stroke="black" stroke-width="0.5"/>
<path d="M318.813 511.821C327.03 509.949 332.949 504.213 333.536 501.135C333.536 501.135 337.482 502.814 338.237 514.147C338.481 517.809 337.649 527.997 337.649 527.997L336.348 529.676L335.887 533.664L335.215 534.335L332.319 553.685L330.892 558.931L331.27 558.805L330.892 561.492C331.445 561.684 331.846 562.181 332.025 562.541C332.131 563.781 331.776 565.049 330.556 568.123L329.087 569.299C326.649 571.077 325.356 571.627 323.211 571.649L327.711 537.592C328.928 525.042 326.158 520.845 318.813 511.821Z" fill="#1B3E72" fill-opacity="0.5"/>
<path d="M275.486 501.513C278.675 507.681 284.552 512.636 284.552 512.636L278.676 520.107L269.778 519.453C270.007 515.183 270.296 512.623 271.153 509.095C272.014 505.554 273.914 502.875 275.486 501.513Z" fill="white"/>
<path d="M334.289 501.513C330.487 507.278 324.215 511.712 324.215 511.712L329.252 520.042L338.053 520.042C338.257 515.802 338.228 513.245 337.731 509.673C337.232 506.089 335.717 503.018 334.289 501.513Z" fill="white"/>
<path d="M275.409 501.597C278.56 507.396 283.797 512.732 283.797 512.732L278.516 520.065L269.778 519.095C270.004 515.08 270.29 512.674 271.137 509.356C271.987 506.027 273.856 502.877 275.409 501.597Z" fill="#162C4F" stroke="black" stroke-width="0.5"/>
<path d="M334.274 501.731C330.55 507.181 324.799 511.957 324.799 511.957L329.302 519.793L338.088 519.718C338.272 515.7 338.234 513.276 337.73 509.888C337.224 506.489 335.688 503.164 334.274 501.731Z" fill="#162C4F" stroke="black" stroke-width="0.5"/>
<path fill-rule="evenodd" clip-rule="evenodd" d="M320.387 570.869L324.268 552.108L319.22 530.684C319.22 530.684 317.156 528.175 315.275 526.57C312.951 524.587 308.097 522.709 308.097 522.709C313.061 525.554 315.07 527.685 317.127 532.546L320.581 554.747L318.418 569.487C318.969 569.941 319.644 570.44 320.387 570.869Z" fill="#1B3C68"/>
<path fill-rule="evenodd" clip-rule="evenodd" d="M287.981 570.867C288.723 570.438 289.398 569.939 289.95 569.485L287.787 554.747L291.241 532.547C293.427 528.385 295.573 526.438 300.04 522.877C300.04 522.877 295.147 525.299 293.115 527.116C291.264 528.771 288.833 531.817 288.833 531.817L284.099 552.108L287.981 570.867Z" fill="#1B3C68"/>
<g filter="url(#filter8_f_603_20327)">
<path d="M311.08 479.729C306.63 479.827 296.238 482.147 290.261 490.642" stroke="#A7248E" stroke-width="0.5"/>
</g>
<g filter="url(#filter9_f_603_20327)">
<path d="M311.08 479.771C306.63 479.869 296.238 482.189 290.261 490.684" stroke="white" stroke-opacity="0.5" stroke-width="0.5"/>
</g>
<path d="M321.185 469.816L324.693 467.449L330.652 474.925L322.966 483.317L296.858 501.849L276.065 501.981L276.175 501.455L286.234 494.925L287.037 491.77L288.093 490.719L310.746 479.908L311.253 477.879L312.352 477.703L314.071 481.437L317.612 479.908L321.185 469.816Z" fill="#70C6E8" stroke="black" stroke-width="0.5"/>
<path d="M312.857 478.55C312.857 471.021 315.777 467.939 318.098 467.002C320.764 465.926 325.621 466.8 325.621 471.629C325.621 477.695 323.337 479.332 321.591 481.639C319.494 484.408 312.857 486.078 312.857 478.55Z" fill="url(#paint23_radial_603_20327)" stroke="black" stroke-width="0.5"/>
<path d="M288.073 490.751L311.182 479.498L312.83 483.614L313.294 483.395L311.182 478.01L312.407 477.397L314.857 483.395C314.857 483.395 319.001 481.661 321.152 479.498C324.634 475.999 324.701 467.545 324.701 467.545C327.813 467.108 333.134 471.416 332.897 481.294C332.661 491.171 328.236 496.618 325.631 499.464L309.788 505.594L282.707 505.944C282.707 505.944 281.356 504.863 280.088 503.974C278.517 502.873 275.99 502.091 275.99 502.091L286.932 495.173L288.073 490.751Z" fill="#214B88" stroke="black" stroke-width="0.5"/>
<path d="M326.794 483.129C320.098 487.57 304.603 496.05 292.565 502.456L292.392 502.713C292.392 502.713 300.322 504.801 305.299 503.15C313.861 500.308 319.808 498.21 325.924 492.615C328.626 490.143 327.105 483.129 327.105 483.129H326.794Z" fill="#1B3C68" stroke="black" stroke-width="0.5"/>
<path d="M323.089 489.924C322.864 489.484 322.33 489.321 321.897 489.561L307.157 497.714C306.725 497.953 306.557 498.504 306.783 498.944V498.944C307.008 499.383 307.542 499.546 307.975 499.307L322.715 491.153C323.147 490.914 323.315 490.363 323.089 489.924V489.924Z" fill="#FF7400" stroke="black" stroke-width="0.5"/>
<path d="M323.329 478.758C325.859 474.905 326.745 467.839 326.745 467.839C326.745 467.839 327.302 468.088 327.631 468.277C327.983 468.479 328.475 468.891 328.475 468.891C328.475 468.891 327.446 475.311 325.142 479.24C321.512 485.434 310.21 488.8 310.21 488.8L309.493 483.67L290.638 493.185L289.415 498.404L280.195 504.007C279.782 503.695 279.369 503.462 278.768 503.15L287.77 497.615L289.162 492.177L310.927 481.082L311.771 485.95C311.771 485.95 320.183 483.547 323.329 478.758Z" fill="#152B53" stroke="black" stroke-width="0.5"/>
<path d="M275.99 502.025L286.932 495.107L288.073 490.685L311.182 479.433L312.83 483.548L313.294 483.329L311.182 477.944L312.407 477.331L314.857 483.329C314.857 483.329 319.001 481.595 321.152 479.433C324.634 475.933 324.701 467.479 324.701 467.479C327.813 467.042 333.134 471.35 332.897 481.228C332.661 491.105 328.236 496.552 325.631 499.398" stroke="black" stroke-width="0.5"/>
<path fill-rule="evenodd" clip-rule="evenodd" d="M338.159 517.91C335.389 517.021 333.325 513.588 333.325 509.488C333.325 506.974 334.101 504.711 335.34 503.131C336.392 504.83 337.351 507.338 337.73 509.888C338.154 512.737 338.249 514.904 338.159 517.91Z" fill="#122138"/>
<path fill-rule="evenodd" clip-rule="evenodd" d="M269.836 518.133C273.245 518.06 275.992 514.218 275.992 509.488C275.992 506.989 275.225 504.737 273.999 503.158C272.85 504.736 271.739 507.001 271.138 509.356C270.361 512.4 270.056 514.677 269.836 518.133Z" fill="#122138"/>
<path fill-rule="evenodd" clip-rule="evenodd" d="M335.169 534.256L333.058 535.853L327.663 549.748L326.033 563.604C326.952 563.343 328.889 562.172 330.808 559.46L332.351 552.828L335.169 534.256Z" fill="#70C6E8"/>
<path d="M333.058 535.853L332.907 535.654L332.851 535.697L332.825 535.763L333.058 535.853ZM335.169 534.256L335.417 534.293L335.509 533.685L335.019 534.056L335.169 534.256ZM327.663 549.748L327.43 549.657L327.419 549.687L327.415 549.719L327.663 549.748ZM326.033 563.604L325.785 563.574L325.741 563.947L326.102 563.844L326.033 563.604ZM330.808 559.46L331.012 559.605L331.04 559.565L331.051 559.517L330.808 559.46ZM332.351 552.828L332.595 552.885L332.597 552.875L332.599 552.866L332.351 552.828ZM333.209 536.053L335.32 534.455L335.019 534.056L332.907 535.654L333.209 536.053ZM327.897 549.838L333.291 535.944L332.825 535.763L327.43 549.657L327.897 549.838ZM326.282 563.633L327.912 549.777L327.415 549.719L325.785 563.574L326.282 563.633ZM330.604 559.316C328.706 561.998 326.812 563.123 325.965 563.363L326.102 563.844C327.092 563.563 329.072 562.346 331.012 559.605L330.604 559.316ZM331.051 559.517L332.595 552.885L332.108 552.772L330.564 559.403L331.051 559.517ZM332.599 552.866L335.417 534.293L334.922 534.218L332.104 552.791L332.599 552.866Z" fill="black"/>
<path d="M334.667 536.602L333.282 537.735L328.749 549.949L327.28 561.03L330.932 558.428" stroke="white" stroke-width="0.5"/>
<path d="M273.01 534.755L274.669 536.008L280.063 549.903L281.694 563.759C280.775 563.498 279.546 563.366 277.627 560.652L275.822 553.895L273.01 534.755Z" fill="#70C6E8" stroke="black" stroke-width="0.5"/>
<path d="M273.01 536.602L274.395 537.735L278.928 549.949L280.397 561.03L276.745 558.428" stroke="white" stroke-width="0.5"/>
<path opacity="0.5" fill-rule="evenodd" clip-rule="evenodd" d="M281.898 505.312C286.558 504.739 291.626 503.973 295.381 503.024C310.47 499.208 326.439 489.449 329.504 484.304C333.555 477.504 330.624 471.639 329.737 470.148C331.581 472.376 333.022 476.05 332.896 481.293C332.66 491.171 328.235 496.618 325.63 499.464L309.787 505.593L282.706 505.944C282.706 505.944 282.38 505.683 281.898 505.312Z" fill="#15325B"/>
<path d="M311.416 479.225C306.967 479.323 296.574 481.643 290.597 490.138" stroke="#D8CBD5" stroke-width="0.5"/>
<path d="M331.519 429.11L327.7 408.628L330.092 427.473L333.282 436.246L331.519 429.11Z" fill="url(#paint24_linear_603_20327)"/>
<path d="M275.403 430.117L279.18 408.501L276.914 427.515L273.85 436.245L275.403 430.117Z" fill="url(#paint25_linear_603_20327)"/>
<path fill-rule="evenodd" clip-rule="evenodd" d="M275.823 501.597C278.144 505.374 282.4 509.617 290.344 512.363C290.013 512.77 289.69 513.166 289.375 513.552C282.698 521.726 279.612 525.504 280.775 537.488L285.47 571.653C283.998 571.741 282.407 571.262 281.04 570.44C279.418 569.466 277.809 568.083 277.809 568.083C277.809 568.083 275.849 563.705 276.368 562.407C276.718 561.534 277.372 561.534 277.372 561.534L275.406 552.785L272.134 529.926L270.737 527.982L270.518 525.299C270.518 525.299 269.834 516.988 271.45 510.658C272.572 506.26 273.702 503.609 275.823 501.597Z" fill="#1B3E72" fill-opacity="0.5"/>
<path d="M292.462 412.725C292.462 412.725 291.878 427.261 297.31 428.9C302.257 428.435 305.028 428.435 309.967 428.9C315.556 426.98 314.211 412.466 314.211 412.466C312.999 411.937 311.899 410.18 311.899 410.18C306.911 410.869 299.668 410.808 294.902 410.18C294.902 410.18 293.462 412.067 292.462 412.725Z" fill="white"/>
<path d="M292.694 412.657C292.694 412.657 292.123 426.801 297.448 428.397C302.297 427.944 305.013 427.943 309.855 428.397C315.335 426.528 314.017 412.405 314.017 412.405C312.828 411.89 311.75 410.18 311.75 410.18C306.86 410.851 299.759 410.791 295.087 410.18C295.087 410.18 293.675 412.016 292.694 412.657Z" fill="#5C81B7" stroke="black" stroke-width="0.5" stroke-miterlimit="10"/>
<path d="M295.036 411.44C295.036 411.44 294.28 425.458 298.603 426.927C302.54 426.511 304.746 426.51 308.677 426.927C313.126 425.207 311.825 411.44 311.825 411.44C311.825 410.631 311.666 410.18 311.666 410.18C307.696 410.798 298.829 410.743 295.036 410.18V411.44Z" fill="#5069A9" stroke="black" stroke-width="0.5" stroke-miterlimit="10"/>
<path d="M305.456 410.702V420.138C305.456 420.262 305.355 420.435 305.056 420.592C304.768 420.743 304.353 420.843 303.881 420.843H303.166C302.694 420.843 302.279 420.743 301.991 420.592C301.692 420.435 301.591 420.262 301.591 420.138V410.689C302.701 410.716 303.818 410.71 305.078 410.704C305.203 410.703 305.329 410.702 305.456 410.702Z" fill="#FF7400" stroke="#3D0751" stroke-width="0.5"/>
<path d="M327.196 427.767L327.7 408.459L330.092 427.473L333.198 436.203L327.196 427.767Z" fill="#32163A"/>
<path d="M279.894 427.515L279.18 408.543L276.872 427.515L273.85 436.245L279.894 427.515Z" fill="#32163A"/>
</g>
<g opacity="0.8" filter="url(#filter10_f_603_20327)">
<path d="M80.5944 72.9164L63.261 40.1969L84.7954 36.1283L80.5944 72.9164Z" fill="white"/>
</g>
<g filter="url(#filter11_f_603_20327)">
<path d="M80.5944 72.9164L63.261 40.1969L84.7954 36.1283L80.5944 72.9164Z" fill="white"/>
</g>
<g filter="url(#filter12_f_603_20327)">
<path d="M80.5944 72.9164L63.261 40.1969L84.7954 36.1283L80.5944 72.9164Z" fill="white"/>
</g>
</g>
<defs>
<filter id="filter0_f_603_20327" x="113.486" y="193.744" width="277.126" height="280.297" filterUnits="userSpaceOnUse" color-interpolation-filters="sRGB">
<feFlood flood-opacity="0" result="BackgroundImageFix"/>
<feBlend mode="normal" in="SourceGraphic" in2="BackgroundImageFix" result="shape"/>
<feGaussianBlur stdDeviation="4" result="effect1_foregroundBlur_603_20327"/>
</filter>
<filter id="filter1_f_603_20327" x="61.3469" y="180.925" width="92.3353" height="46.4309" filterUnits="userSpaceOnUse" color-interpolation-filters="sRGB">
<feFlood flood-opacity="0" result="BackgroundImageFix"/>
<feBlend mode="normal" in="SourceGraphic" in2="BackgroundImageFix" result="shape"/>
<feGaussianBlur stdDeviation="8" result="effect1_foregroundBlur_603_20327"/>
</filter>
<filter id="filter2_d_603_20327" x="63.6934" y="102.711" width="70.5468" height="105.455" filterUnits="userSpaceOnUse" color-interpolation-filters="sRGB">
<feFlood flood-opacity="0" result="BackgroundImageFix"/>
<feColorMatrix in="SourceAlpha" type="matrix" values="0 0 0 0 0 0 0 0 0 0 0 0 0 0 0 0 0 0 127 0" result="hardAlpha"/>
<feOffset dy="4"/>
<feGaussianBlur stdDeviation="2"/>
<feComposite in2="hardAlpha" operator="out"/>
<feColorMatrix type="matrix" values="0 0 0 0 0 0 0 0 0 0 0 0 0 0 0 0 0 0 0.25 0"/>
<feBlend mode="normal" in2="BackgroundImageFix" result="effect1_dropShadow_603_20327"/>
<feBlend mode="normal" in="SourceGraphic" in2="effect1_dropShadow_603_20327" result="shape"/>
</filter>
<filter id="filter3_f_603_20327" x="64.9564" y="96.9041" width="63.8424" height="70.7341" filterUnits="userSpaceOnUse" color-interpolation-filters="sRGB">
<feFlood flood-opacity="0" result="BackgroundImageFix"/>
<feBlend mode="normal" in="SourceGraphic" in2="BackgroundImageFix" result="shape"/>
<feGaussianBlur stdDeviation="11.5" result="effect1_foregroundBlur_603_20327"/>
</filter>
<filter id="filter4_f_603_20327" x="54.2523" y="99.6011" width="58.905" height="68.0371" filterUnits="userSpaceOnUse" color-interpolation-filters="sRGB">
<feFlood flood-opacity="0" result="BackgroundImageFix"/>
<feBlend mode="normal" in="SourceGraphic" in2="BackgroundImageFix" result="shape"/>
<feGaussianBlur stdDeviation="11.5" result="effect1_foregroundBlur_603_20327"/>
</filter>
<filter id="filter5_f_603_20327" x="48.6884" y="134.183" width="68.9615" height="72.1636" filterUnits="userSpaceOnUse" color-interpolation-filters="sRGB">
<feFlood flood-opacity="0" result="BackgroundImageFix"/>
<feBlend mode="normal" in="SourceGraphic" in2="BackgroundImageFix" result="shape"/>
<feGaussianBlur stdDeviation="11.5" result="effect1_foregroundBlur_603_20327"/>
</filter>
<filter id="filter6_f_603_20327" x="70.1156" y="130.004" width="73.7136" height="76.3291" filterUnits="userSpaceOnUse" color-interpolation-filters="sRGB">
<feFlood flood-opacity="0" result="BackgroundImageFix"/>
<feBlend mode="normal" in="SourceGraphic" in2="BackgroundImageFix" result="shape"/>
<feGaussianBlur stdDeviation="11.5" result="effect1_foregroundBlur_603_20327"/>
</filter>
<filter id="filter7_f_603_20327" x="257.456" y="395.14" width="92.1525" height="209.817" filterUnits="userSpaceOnUse" color-interpolation-filters="sRGB">
<feFlood flood-opacity="0" result="BackgroundImageFix"/>
<feBlend mode="normal" in="SourceGraphic" in2="BackgroundImageFix" result="shape"/>
<feGaussianBlur stdDeviation="4" result="effect1_foregroundBlur_603_20327"/>
</filter>
<filter id="filter8_f_603_20327" x="288.057" y="477.479" width="25.0284" height="15.3066" filterUnits="userSpaceOnUse" color-interpolation-filters="sRGB">
<feFlood flood-opacity="0" result="BackgroundImageFix"/>
<feBlend mode="normal" in="SourceGraphic" in2="BackgroundImageFix" result="shape"/>
<feGaussianBlur stdDeviation="1" result="effect1_foregroundBlur_603_20327"/>
</filter>
<filter id="filter9_f_603_20327" x="288.057" y="477.521" width="25.0284" height="15.3066" filterUnits="userSpaceOnUse" color-interpolation-filters="sRGB">
<feFlood flood-opacity="0" result="BackgroundImageFix"/>
<feBlend mode="normal" in="SourceGraphic" in2="BackgroundImageFix" result="shape"/>
<feGaussianBlur stdDeviation="1" result="effect1_foregroundBlur_603_20327"/>
</filter>
<filter id="filter10_f_603_20327" x="60.261" y="33.1284" width="27.5344" height="42.7881" filterUnits="userSpaceOnUse" color-interpolation-filters="sRGB">
<feFlood flood-opacity="0" result="BackgroundImageFix"/>
<feBlend mode="normal" in="SourceGraphic" in2="BackgroundImageFix" result="shape"/>
<feGaussianBlur stdDeviation="1.5" result="effect1_foregroundBlur_603_20327"/>
</filter>
<filter id="filter11_f_603_20327" x="26.261" y="-0.871582" width="95.5344" height="110.788" filterUnits="userSpaceOnUse" color-interpolation-filters="sRGB">
<feFlood flood-opacity="0" result="BackgroundImageFix"/>
<feBlend mode="normal" in="SourceGraphic" in2="BackgroundImageFix" result="shape"/>
<feGaussianBlur stdDeviation="18.5" result="effect1_foregroundBlur_603_20327"/>
</filter>
<filter id="filter12_f_603_20327" x="26.261" y="-0.871582" width="95.5344" height="110.788" filterUnits="userSpaceOnUse" color-interpolation-filters="sRGB">
<feFlood flood-opacity="0" result="BackgroundImageFix"/>
<feBlend mode="normal" in="SourceGraphic" in2="BackgroundImageFix" result="shape"/>
<feGaussianBlur stdDeviation="18.5" result="effect1_foregroundBlur_603_20327"/>
</filter>
<radialGradient id="paint0_radial_603_20327" cx="0" cy="0" r="1" gradientUnits="userSpaceOnUse" gradientTransform="translate(95.5188 37.3357) rotate(90) scale(37.3357 95.5188)">
<stop stop-color="#AADEFC"/>
<stop offset="1" stop-color="#4BBAF9" stop-opacity="0"/>
</radialGradient>
<radialGradient id="paint1_radial_603_20327" cx="0" cy="0" r="1" gradientUnits="userSpaceOnUse" gradientTransform="translate(30.1677 7.21533) rotate(90) scale(7.21533 30.1677)">
<stop/>
<stop offset="1" stop-opacity="0"/>
</radialGradient>
<radialGradient id="paint2_radial_603_20327" cx="0" cy="0" r="1" gradientUnits="userSpaceOnUse" gradientTransform="translate(92.8315 161.549) rotate(128.674) scale(29.6604 21.743)">
<stop stop-color="#CFEBE9"/>
<stop offset="1" stop-color="#42DEF3"/>
</radialGradient>
<radialGradient id="paint3_radial_603_20327" cx="0" cy="0" r="1" gradientUnits="userSpaceOnUse" gradientTransform="translate(95.9318 164.514) rotate(6.68117) scale(30.481 38.109)">
<stop stop-color="#CFEBE9"/>
<stop offset="1" stop-color="#42DEF3"/>
</radialGradient>
<radialGradient id="paint4_radial_603_20327" cx="0" cy="0" r="1" gradientUnits="userSpaceOnUse" gradientTransform="translate(87.2638 124.796) rotate(32.5421) scale(21.8725 15.6263)">
<stop stop-color="#CFEBE9"/>
<stop offset="1" stop-color="#AEDDDA"/>
</radialGradient>
<radialGradient id="paint5_radial_603_20327" cx="0" cy="0" r="1" gradientUnits="userSpaceOnUse" gradientTransform="translate(87.1667 124.135) rotate(119.861) scale(18.7013 14.5073)">
<stop stop-color="#CFEBE9"/>
<stop offset="1" stop-color="#AEDDDA"/>
</radialGradient>
<radialGradient id="paint6_radial_603_20327" cx="0" cy="0" r="1" gradientUnits="userSpaceOnUse" gradientTransform="translate(87.2638 124.796) rotate(32.5421) scale(21.8725 15.6263)">
<stop stop-color="#F3F3F3"/>
<stop offset="1" stop-color="#42DEF3"/>
</radialGradient>
<radialGradient id="paint7_radial_603_20327" cx="0" cy="0" r="1" gradientUnits="userSpaceOnUse" gradientTransform="translate(87.1667 124.135) rotate(125.769) scale(20.0043 15.3159)">
<stop stop-color="#F3FDFF"/>
<stop offset="1" stop-color="#42DEF3"/>
</radialGradient>
<linearGradient id="paint8_linear_603_20327" x1="79.2549" y1="170.211" x2="83.8946" y2="202.021" gradientUnits="userSpaceOnUse">
<stop stop-color="#877665"/>
<stop offset="1" stop-color="#5A5851"/>
</linearGradient>
<linearGradient id="paint9_linear_603_20327" x1="79.4721" y1="139.577" x2="83.1572" y2="164.843" gradientUnits="userSpaceOnUse">
<stop stop-color="#877665"/>
<stop offset="1" stop-color="#5A5851"/>
</linearGradient>
<radialGradient id="paint10_radial_603_20327" cx="0" cy="0" r="1" gradientUnits="userSpaceOnUse" gradientTransform="translate(92.4301 165.163) rotate(140.197) scale(35.3025 24.1622)">
<stop stop-color="#CFEBE9"/>
<stop offset="1" stop-color="#42DEF3"/>
</radialGradient>
<linearGradient id="paint11_linear_603_20327" x1="110.627" y1="167.861" x2="114.968" y2="197.624" gradientUnits="userSpaceOnUse">
<stop stop-color="#63605F"/>
<stop offset="1" stop-color="#626968"/>
</linearGradient>
<linearGradient id="paint12_linear_603_20327" x1="101.504" y1="137.429" x2="105.085" y2="161.978" gradientUnits="userSpaceOnUse">
<stop stop-color="#63605F"/>
<stop offset="1" stop-color="#626968"/>
</linearGradient>
<linearGradient id="paint13_linear_603_20327" x1="80.2303" y1="104.747" x2="83.3367" y2="126.044" gradientUnits="userSpaceOnUse">
<stop stop-color="#877665"/>
<stop offset="1" stop-color="#5A5851"/>
</linearGradient>
<linearGradient id="paint14_linear_603_20327" x1="91.5284" y1="103.64" x2="94.5575" y2="124.408" gradientUnits="userSpaceOnUse">
<stop stop-color="#63605F"/>
<stop offset="1" stop-color="#626968"/>
</linearGradient>
<linearGradient id="paint15_linear_603_20327" x1="85.7218" y1="102.865" x2="86.127" y2="105.643" gradientUnits="userSpaceOnUse">
<stop stop-color="#6E6B64"/>
<stop offset="1" stop-color="#6E6B64"/>
</linearGradient>
<linearGradient id="paint16_linear_603_20327" x1="96.6362" y1="161.391" x2="79.3271" y2="203.658" gradientUnits="userSpaceOnUse">
<stop stop-color="#B1CACD"/>
<stop offset="1" stop-color="#AAC5C9" stop-opacity="0"/>
</linearGradient>
<linearGradient id="paint17_linear_603_20327" x1="91.0531" y1="136.942" x2="84.6553" y2="161.328" gradientUnits="userSpaceOnUse">
<stop stop-color="#B1CACD"/>
<stop offset="1" stop-color="#AAC5C9" stop-opacity="0"/>
</linearGradient>
<radialGradient id="paint18_radial_603_20327" cx="0" cy="0" r="1" gradientUnits="userSpaceOnUse" gradientTransform="translate(97.9285 166.913) rotate(3.64098) scale(28.4316 35.4295)">
<stop stop-color="#CFEBE9"/>
<stop offset="1" stop-color="#42DEF3"/>
</radialGradient>
<linearGradient id="paint19_linear_603_20327" x1="331.945" y1="547.653" x2="334.697" y2="548.19" gradientUnits="userSpaceOnUse">
<stop stop-color="#FF1DB2"/>
<stop offset="1" stop-color="#8E1F83"/>
</linearGradient>
<linearGradient id="paint20_linear_603_20327" x1="276.478" y1="548.66" x2="273.66" y2="549.225" gradientUnits="userSpaceOnUse">
<stop stop-color="#FF1DB2"/>
<stop offset="1" stop-color="#8E1F83"/>
</linearGradient>
<linearGradient id="paint21_linear_603_20327" x1="272.157" y1="487.006" x2="269.763" y2="487.52" gradientUnits="userSpaceOnUse">
<stop stop-color="#FF1DB2"/>
<stop offset="1" stop-color="#8E1F83"/>
</linearGradient>
<linearGradient id="paint22_linear_603_20327" x1="335.269" y1="486.293" x2="337.663" y2="486.807" gradientUnits="userSpaceOnUse">
<stop stop-color="#FF1DB2"/>
<stop offset="1" stop-color="#8E1F83"/>
</linearGradient>
<radialGradient id="paint23_radial_603_20327" cx="0" cy="0" r="1" gradientUnits="userSpaceOnUse" gradientTransform="translate(321.437 468.492) rotate(-178.619) scale(6.25729 6.20738)">
<stop offset="0.0343749" stop-color="#8CA1BF"/>
<stop offset="1" stop-color="#2A528C"/>
</radialGradient>
<linearGradient id="paint24_linear_603_20327" x1="331.687" y1="423.864" x2="329.462" y2="424.283" gradientUnits="userSpaceOnUse">
<stop stop-color="#FF1D46"/>
<stop offset="1" stop-color="#8E1F83"/>
</linearGradient>
<linearGradient id="paint25_linear_603_20327" x1="275.445" y1="423.863" x2="277.669" y2="424.283" gradientUnits="userSpaceOnUse">
<stop stop-color="#FF1DB2"/>
<stop offset="1" stop-color="#8E1F83"/>
</linearGradient>
</defs>
</svg>
